<?xml version="1.0" encoding="UTF-8" standalone="no"?>
<svg
   xmlns:dc="http://purl.org/dc/elements/1.1/"
   xmlns:cc="http://creativecommons.org/ns#"
   xmlns:rdf="http://www.w3.org/1999/02/22-rdf-syntax-ns#"
   xmlns:svg="http://www.w3.org/2000/svg"
   xmlns="http://www.w3.org/2000/svg"
   xmlns:sodipodi="http://sodipodi.sourceforge.net/DTD/sodipodi-0.dtd"
   xmlns:inkscape="http://www.inkscape.org/namespaces/inkscape"
   width="250"
   height="250"
   viewBox="0 0 66.145835 66.145835"
   version="1.1"
   id="svg8"
   inkscape:version="1.0.1 (c497b03c, 2020-09-10)"
   sodipodi:docname="missingno.svg">
  <defs
     id="defs2" />
  <sodipodi:namedview
     id="base"
     pagecolor="#ffffff"
     bordercolor="#666666"
     borderopacity="1.0"
     inkscape:pageopacity="0.0"
     inkscape:pageshadow="2"
     inkscape:zoom="0.84733337"
     inkscape:cx="450.32816"
     inkscape:cy="76.265026"
     inkscape:document-units="mm"
     inkscape:current-layer="layer1"
     inkscape:document-rotation="0"
     showgrid="false"
     inkscape:pagecheckerboard="true"
     units="px"
     inkscape:window-width="1252"
     inkscape:window-height="855"
     inkscape:window-x="0"
     inkscape:window-y="103"
     inkscape:window-maximized="0" />
  <metadata
     id="metadata5">
    <rdf:RDF>
      <cc:Work
         rdf:about="">
        <dc:format>image/svg+xml</dc:format>
        <dc:type
           rdf:resource="http://purl.org/dc/dcmitype/StillImage" />
        <dc:title></dc:title>
      </cc:Work>
    </rdf:RDF>
  </metadata>
  <g
     inkscape:label="Layer 1"
     inkscape:groupmode="layer"
     id="layer1">
    <g
       id="g38"
       transform="translate(-98.313153,-22.475012)">
      <path
         style="fill:#fefefe;stroke-width:0.264583"
         d="m 120.27357,80.947929 v -0.396875 h 1.85208 1.85208 v 0.396875 0.396875 h -1.85208 -1.85208 z m 5.55625,0 v -0.396875 h -0.39688 -0.39687 v -0.396875 -0.396875 h -0.52917 -0.52917 v -0.529166 -0.529167 h 0.52917 0.52917 v 0.529167 0.529166 h 0.92604 0.92604 v 0.396875 0.396875 h 0.39688 0.39687 v 0.396875 0.396875 h -0.92604 -0.92604 z m 5.55625,0 v -0.396875 h -1.85209 -1.85208 v -0.396875 -0.396875 h -0.39687 -0.39688 v -0.529166 -0.529167 h -0.52917 -0.52916 v -0.396875 -0.396875 h -2.77813 -2.77812 v -0.529167 -0.529166 h 2.38125 2.38125 v -0.396875 -0.396875 h 0.39687 0.39688 v 0.926041 0.926042 h 0.52916 0.52917 v -0.926042 -0.926041 h -0.52917 -0.52916 v -0.529167 -0.529167 h 0.52916 0.52917 v 0.529167 0.529167 h 0.39688 0.39687 v -0.926042 -0.926042 h 0.92604 0.92604 v -1.455208 -1.455208 h -4.6302 -4.63021 v -1.852084 -1.852083 h 0.52916 0.52917 v -0.926042 -0.926041 h -0.52917 -0.52916 v -0.396875 -0.396875 h 0.52916 0.52917 v 0.396875 0.396875 h 0.39688 0.39687 v 0.926041 0.926042 h 0.52917 0.52916 v -0.926042 -0.926041 h 0.39688 0.39687 v 0.926041 0.926042 h 0.52917 0.52917 v -0.926042 -0.926041 h 0.39687 0.39688 v 0.926041 0.926042 h 0.52916 0.52917 v -0.926042 -0.926041 h 0.39688 0.39687 v 0.926041 0.926042 h 0.92604 0.92604 v -0.396875 -0.396875 h 0.52917 0.52917 v 0.396875 0.396875 h -0.52917 -0.52917 v 0.529167 0.529166 h 0.52917 0.52917 v 0.396875 0.396875 h 0.39687 0.39688 v -0.926041 -0.926042 h 0.92604 0.92604 v 0.529167 0.529166 h 0.52917 0.52916 v 0.396875 0.396875 h 0.92605 0.92604 v 0.926042 0.926042 h -0.52917 -0.52917 v -0.396875 -0.396875 h -0.39687 -0.39688 v -0.529167 -0.529167 h -0.92604 -0.92604 v 0.529167 0.529167 h -0.92604 -0.92604 v 1.322916 1.322917 h 0.39687 0.39688 v 0.529167 0.529166 h 1.85208 1.85208 v 0.396875 0.396875 h -0.39687 -0.39688 v 0.926042 0.926042 h 1.32292 1.32292 v -0.396875 -0.396875 h 0.52916 0.52917 v 0.396875 0.396875 h -0.52917 -0.52916 v 0.529166 0.529167 h -0.92604 -0.92605 v 1.322917 1.322916 h 0.52917 0.52917 v 0.396875 0.396875 h -0.92604 -0.92605 v -1.322916 -1.322917 h -0.52916 -0.52917 v 0.529167 0.529166 h -0.39687 -0.39688 v 0.79375 0.79375 h -0.52917 -0.52916 z m 1.05833,-1.719791 v -0.529167 h -0.52917 -0.52916 v 0.529167 0.529166 h 0.52916 0.52917 z m -1.05833,-0.926042 v -0.396875 h 1.45521 1.4552 v -0.529167 -0.529166 h -1.4552 -1.45521 v 0.529166 0.529167 h -0.39688 -0.39687 v -0.529167 -0.529166 h -0.52917 -0.52917 v -0.396875 -0.396875 h -0.92604 -0.92604 v 0.926041 0.926042 h -0.39687 -0.39688 v 0.396875 0.396875 h 2.24896 2.24896 z m 0,-2.778125 v -1.322917 h -0.92604 -0.92605 v 0.926042 0.926042 h 0.52917 0.52917 v 0.396875 0.396875 h 0.39687 0.39688 z m 1.85208,0 v -0.529167 h -0.39687 -0.39688 v 0.529167 0.529167 h 0.39688 0.39687 z m -4.49792,-6.482292 v -0.396875 h -0.52916 -0.52917 v -0.529166 -0.529167 h -0.39687 -0.39688 v 0.529167 0.529166 h 0.39688 0.39687 v 0.396875 0.396875 h 0.52917 0.52916 z m -6.61458,-0.926041 v -0.529167 h -0.39687 -0.39688 v 0.529167 0.529166 h 0.39688 0.39687 z m 1.85208,0 v -0.529167 h -0.39687 -0.39688 v 0.529167 0.529166 h 0.39688 0.39687 z m 1.85209,0 v -0.529167 h -0.39688 -0.39687 v 0.529167 0.529166 h 0.39687 0.39688 z m 11.1125,11.90625 v -1.322917 h 1.85208 1.85208 v 0.529167 0.529166 h -0.39687 -0.39688 v 0.396875 0.396875 h 0.92605 0.92604 v -0.396875 -0.396875 h 0.39687 0.39688 v 0.396875 0.396875 h -0.39688 -0.39687 v 0.396875 0.396875 h -2.38125 -2.38125 z m 1.85208,0.132291 v -0.396875 h -0.39687 -0.39688 v 0.396875 0.396875 h 0.39688 0.39687 z m 1.05833,-2.778125 v -0.529166 h 0.39688 0.39687 v 0.529166 0.529167 h -0.39687 -0.39688 z m 1.85209,0 v -0.529166 h 0.39687 0.39688 v 0.529166 0.529167 h -0.39688 -0.39687 z m -17.72709,-1.852083 v -0.529167 h 0.52917 0.52917 v 0.529167 0.529167 h -0.52917 -0.52917 z m -3.70416,-1.852083 v -1.322917 h 3.70416 3.70417 v 0.926042 0.926041 h -1.85208 -1.85209 v 0.396875 0.396875 h -1.85208 -1.85208 z m 21.43125,0.926041 v -0.396875 h -0.92604 -0.92605 v -0.529166 -0.529167 h 0.39688 0.39687 v -0.396875 -0.396875 h -0.39687 -0.39688 v -0.529167 -0.529166 h -0.52916 -0.52917 v -0.926042 -0.926042 h 0.52917 0.52916 v 0.529167 0.529167 h 0.39688 0.39687 v -0.529167 -0.529167 h 0.52917 0.52917 v 0.529167 0.529167 h 0.39687 0.39688 v 0.926041 0.926042 h -0.39688 -0.39687 v 0.926042 0.926041 h 0.39687 0.39688 v 0.396875 0.396875 h -0.39688 -0.39687 z m 0,-2.778125 v -0.529166 h -0.52917 -0.52917 v 0.529166 0.529167 h 0.52917 0.52917 z m -9.26042,0.926042 v -0.396875 h -0.52917 -0.52916 v -0.529167 -0.529166 h 1.85208 1.85208 v 0.926041 0.926042 h -0.39687 -0.39688 v -0.396875 -0.396875 h -0.52916 -0.52917 v 0.396875 0.396875 h -0.39687 -0.39688 z m 4.49792,-2.38125 v -0.926042 h 0.52916 0.52917 v 0.926042 0.926042 h -0.52917 -0.52916 z m -1.85209,-3.175 v -0.396875 h 0.52917 0.52917 v 0.396875 0.396875 h -0.52917 -0.52917 z m 1.85209,0 v -0.396875 h 0.52916 0.52917 v 0.396875 0.396875 h -0.52917 -0.52916 z m 1.85208,0 v -0.396875 h 0.52917 0.52916 v 0.396875 0.396875 h -0.52916 -0.52917 z m -7.40833,-0.926042 v -0.529166 h 1.45521 1.4552 v 0.529166 0.529167 h -1.4552 -1.45521 z m 10.31875,-0.926041 v -0.396875 h 0.39687 0.39688 v 0.396875 0.396875 h -0.39688 -0.39687 z m -14.81667,-0.926042 v -0.529167 h -0.52917 -0.52916 v -0.396875 -0.396875 h 0.52916 0.52917 v -0.529166 -0.529167 h 0.39688 0.39687 v 0.529167 0.529166 h -0.39687 -0.39688 v 0.396875 0.396875 h 0.39688 0.39687 v 0.529167 0.529167 h -0.39687 -0.39688 z m 5.55625,-0.396875 v -0.926042 h -0.52917 -0.52916 v -0.529166 -0.529167 h 0.52916 0.52917 v 0.529167 0.529166 h 0.92604 0.92604 v 0.926042 0.926042 h -0.92604 -0.92604 z m 2.64583,0.396875 v -0.529167 h 2.38125 2.38125 v 0.529167 0.529167 h -2.38125 -2.38125 z m 4.7625,-0.926042 v -0.396875 h -0.52916 -0.52917 v -0.529166 -0.529167 h -0.39687 -0.39688 v -0.396875 -0.396875 h 0.39688 0.39687 v -0.529167 -0.529166 h 0.52917 0.52916 v 0.529166 0.529167 h 0.39688 0.39687 v 0.396875 0.396875 h 0.52917 0.52917 v -0.396875 -0.396875 h -0.52917 -0.52917 v -0.926042 -0.926041 h 0.52917 0.52917 v -0.529167 -0.529167 h -0.52917 -0.52917 v -0.926041 -0.926042 h 0.52917 0.52917 v -0.396875 -0.396875 h -0.52917 -0.52917 v -0.926042 -0.926041 h -0.39687 -0.39688 v 0.926041 0.926042 h -0.52916 -0.52917 v -0.926042 -0.926041 h -0.39687 -0.39688 v 0.926041 0.926042 h -0.92604 -0.92604 v 0.396875 0.396875 h 0.92604 0.92604 v 0.529167 0.529166 h -0.52917 -0.52916 v 0.396875 0.396875 h 0.52916 0.52917 v 0.529167 0.529167 h -0.92604 -0.92604 v 0.396875 0.396875 h 0.92604 0.92604 v 0.529166 0.529167 h -0.92604 -0.92604 v 0.926042 0.926041 h -0.92604 -0.92605 v -0.529166 -0.529167 h 0.39688 0.39687 v -0.396875 -0.396875 h -0.39687 -0.39688 v -0.529167 -0.529166 h 0.39688 0.39687 v -0.926042 -0.926042 h 0.52917 0.52917 v -0.926041 -0.926042 h -0.52917 -0.52917 v 0.529167 0.529166 h -1.32291 -1.32292 v -0.529166 -0.529167 h -0.52917 -0.52916 v -0.396875 -0.396875 h 2.38125 2.38125 v -0.926042 -0.926041 h -0.52917 -0.52917 v -0.529167 -0.529167 h 0.52917 0.52917 v 0.529167 0.529167 h 0.92604 0.92604 v -0.529167 -0.529167 h -0.52917 -0.52916 v -0.926041 -0.926042 h 0.52916 0.52917 v 0.926042 0.926041 h 0.39688 0.39687 v -0.396875 -0.396875 h 0.52917 0.52916 v 0.396875 0.396875 h 0.39688 0.39687 v 0.529167 0.529167 h 0.52917 0.52917 v 0.926041 0.926042 h 0.39687 0.39688 v 0.396875 0.396875 h -0.39688 -0.39687 v 0.529167 0.529166 h 0.39687 0.39688 v 0.926042 0.926042 h -0.39688 -0.39687 v 0.926041 0.926042 h 0.39687 0.39688 v 0.926042 0.926041 h -0.92604 -0.92605 v 0.396875 0.396875 h -0.39687 -0.39688 z m 0,-10.186458 v -0.529167 h -0.52916 -0.52917 v 0.529167 0.529167 h 0.52917 0.52916 z m -17.72708,9.260417 v -0.529167 h -0.92604 -0.92604 v -0.396875 -0.396875 h 2.77812 2.77813 v 0.396875 0.396875 h -0.39688 -0.39687 v 0.529167 0.529166 h -0.52917 -0.52917 v -0.529166 -0.529167 h -0.39687 -0.39688 v 0.529167 0.529166 h -0.52916 -0.52917 z m 14.81667,0 v -0.529167 h 0.52916 0.52917 v 0.529167 0.529166 h -0.52917 -0.52916 z m -5.55625,-1.852084 v -0.529166 h 0.92604 0.92604 v 0.529166 0.529167 h -0.92604 -0.92604 z M 121.3319,59.781263 v -0.396875 h -0.52917 -0.52916 v -0.529167 -0.529167 h 0.52916 0.52917 v -0.396875 -0.396875 h 2.77813 2.77812 v 0.396875 0.396875 h -2.77812 -2.77813 v 0.529167 0.529167 h 1.85208 1.85209 v 0.396875 0.396875 h -1.85209 -1.85208 z m 4.49792,0 v -0.396875 h 0.92604 0.92604 v -0.926042 -0.926042 h 0.52917 0.52916 v 0.396875 0.396875 h 0.92605 0.92604 v 0.529167 0.529167 h -0.92604 -0.92605 v 0.396875 0.396875 h -1.4552 -1.45521 z m 5.55625,-0.926042 v -0.529167 h 0.52916 0.52917 v 0.529167 0.529167 h -0.52917 -0.52916 z m 1.85208,0 v -0.529167 h 0.52917 0.52916 v 0.529167 0.529167 h -0.52916 -0.52917 z m 5.55625,0 v -0.529167 h 0.52917 0.52916 v 0.529167 0.529167 h -0.52916 -0.52917 z m -9.26042,-1.852083 v -0.529167 h -0.92604 -0.92604 v -0.396875 -0.396875 h -0.39687 -0.39688 v -0.529167 -0.529166 h 0.39688 0.39687 v 0.529166 0.529167 h 0.92604 0.92604 v 0.396875 0.396875 h 0.52917 0.52917 v 0.529167 0.529166 h -0.52917 -0.52917 z m 9.26042,0 v -0.529167 h -0.39687 -0.39688 v -0.396875 -0.396875 h 0.39688 0.39687 v 0.396875 0.396875 h 0.52917 0.52916 v -0.396875 -0.396875 h 0.39688 0.39687 v 0.396875 0.396875 h -0.39687 -0.39688 v 0.529167 0.529166 h -0.52916 -0.52917 z m -18.52083,-1.455209 v -0.926041 h 0.52916 0.52917 v -0.396875 -0.396875 h -0.52917 -0.52916 v -0.529167 -0.529167 h 2.77812 2.77813 v 1.852084 1.852083 h -2.77813 -2.77812 z m 7.40833,-3.175 v -1.455208 h 1.85208 1.85209 v -0.926042 -0.926041 h 0.92604 0.92604 v 0.529166 0.529167 h -0.39687 -0.39688 v 0.396875 0.396875 h 0.39688 0.39687 v 0.529167 0.529166 h 0.52917 0.52916 v 0.396875 0.396875 h -0.52916 -0.52917 v -0.396875 -0.396875 h -0.39687 -0.39688 v 0.396875 0.396875 h -0.52917 -0.52916 v -0.396875 -0.396875 h -1.32292 -1.32292 v 0.926042 0.926042 h -0.52916 -0.52917 z m 4.7625,-0.926041 v -0.529167 h -0.52917 -0.52916 v 0.529167 0.529166 h 0.52916 0.52917 z m 8.20208,0.926041 v -0.396875 h -0.39687 -0.39688 v -0.529166 -0.529167 h 0.92605 0.92604 v 0.529167 0.529166 h 0.39687 0.39688 v 0.396875 0.396875 h -0.92604 -0.92605 z m -5.55625,-0.926041 v -0.529167 h 0.52917 0.52917 v 0.529167 0.529166 h -0.52917 -0.52917 z m -7.40833,-1.852084 v -0.529166 h 0.92604 0.92604 v 0.529166 0.529167 h -0.92604 -0.92604 z m 7.40833,-0.396875 v -0.926041 h 0.52917 0.52917 v -0.529167 -0.529167 h -0.52917 -0.52917 v -0.396875 -0.396875 h 1.45521 1.45521 v 0.396875 0.396875 h -0.52917 -0.52916 v 0.529167 0.529167 h 1.45521 1.4552 v -0.529167 -0.529167 h 0.92605 0.92604 v -0.396875 -0.396875 h 0.39687 0.39688 v 0.926042 0.926042 h -1.32292 -1.32292 v 0.396875 0.396875 h 0.92605 0.92604 v 0.529166 0.529167 h -0.92604 -0.92605 v -0.529167 -0.529166 h -0.52916 -0.52917 v 0.529166 0.529167 h -1.85208 -1.85209 z m -5.55625,-1.455208 v -0.529167 h -0.39687 -0.39688 v -0.396875 -0.396875 h 1.32292 1.32292 v 0.396875 0.396875 h 0.52916 0.52917 v -0.396875 -0.396875 h 0.92604 0.92604 v 0.396875 0.396875 h -0.52916 -0.52917 v 0.529167 0.529167 h -0.92604 -0.92604 v -0.529167 -0.529167 h -0.39688 -0.39687 v 0.529167 0.529167 h -0.52917 -0.52917 z m -0.79375,-2.778125 v -0.396875 h 0.39688 0.39687 v 0.396875 0.396875 h -0.39687 -0.39688 z m 1.85209,0 v -0.396875 h 0.39687 0.39688 v 0.396875 0.396875 h -0.39688 -0.39687 z m 1.85208,0 v -0.396875 h 0.39688 0.39687 v 0.396875 0.396875 h -0.39687 -0.39688 z m 4.49792,0 v -0.396875 h 0.92604 0.92604 v 0.396875 0.396875 h -0.92604 -0.92604 z m 3.70416,0 v -0.396875 h -0.39687 -0.39688 v -0.529167 -0.529166 h 0.92605 0.92604 v 0.529166 0.529167 h 0.39687 0.39688 v 0.396875 0.396875 h -0.92604 -0.92605 z m -12.96458,-2.38125 v -0.926042 h 0.52917 0.52916 v -0.396875 -0.396875 h 0.92605 0.92604 v -0.529166 -0.529167 h -0.52917 -0.52917 v -0.396875 -0.396875 h 2.77813 2.77812 v -0.529167 -0.529166 h -3.175 -3.175 v -0.396875 -0.396875 h 3.175 3.175 v 0.396875 0.396875 h 0.52917 0.52917 v -1.852084 -1.852083 h -1.45521 -1.45521 v 0.529167 0.529166 h -2.24896 -2.24896 v -0.529166 -0.529167 h 1.85209 1.85208 v -0.396875 -0.396875 h 0.92604 0.92604 v -0.529167 -0.529166 h 0.39688 0.39687 v -0.396875 -0.396875 h -0.39687 -0.39688 v -0.529167 -0.529167 h -0.52916 -0.52917 v -0.396875 -0.396875 h 0.52917 0.52916 v 0.396875 0.396875 h 0.39688 0.39687 v -0.396875 -0.396875 h 0.52917 0.52917 v 0.926042 0.926042 h 0.39687 0.39688 v -0.529167 -0.529167 h 0.52916 0.52917 v -0.396875 -0.396875 h 0.92604 0.92604 v 0.396875 0.396875 h 0.92605 0.92604 v -0.396875 -0.396875 h 0.39687 0.39688 v 0.396875 0.396875 h -0.39688 -0.39687 v 0.529167 0.529167 h -0.52917 -0.52917 v 0.396875 0.396875 h -0.39687 -0.39688 v 0.926041 0.926042 h 0.39688 0.39687 v -0.396875 -0.396875 h 0.92605 0.92604 v 0.396875 0.396875 h -0.92604 -0.92605 v 0.529167 0.529166 h -0.39687 -0.39688 v -0.529166 -0.529167 h -0.52916 -0.52917 v 0.529167 0.529166 h -0.39687 -0.39688 v 0.396875 0.396875 h -0.52917 -0.52916 v 0.926042 0.926042 h 0.52916 0.52917 v 0.529166 0.529167 h 0.92604 0.92604 v 0.926042 0.926041 h -0.52916 -0.52917 v -0.529166 -0.529167 h -0.39687 -0.39688 v 0.529167 0.529166 h -0.52917 -0.52916 v -0.529166 -0.529167 h -0.39688 -0.39687 v 0.529167 0.529166 h -0.92604 -0.92605 v 0.396875 0.396875 h -0.52916 -0.52917 v 0.529167 0.529167 h -0.39687 -0.39688 v -0.529167 -0.529167 h -0.52917 -0.52916 v 0.529167 0.529167 h -0.39688 -0.39687 v -0.529167 -0.529167 h -0.52917 -0.52917 v 0.529167 0.529167 h -0.39687 -0.39688 v 0.396875 0.396875 h -0.52916 -0.52917 z m 3.70417,-1.322917 v -0.396875 h 0.52916 0.52917 v 0.396875 0.396875 h 0.39688 0.39687 v -0.396875 -0.396875 h 0.52917 0.52916 v -0.529166 -0.529167 h -0.52916 -0.52917 v 0.529167 0.529166 h -0.39687 -0.39688 v -0.529166 -0.529167 h -0.52917 -0.52916 v 0.529167 0.529166 h -0.39688 -0.39687 v 0.396875 0.396875 h 0.39687 0.39688 z m 6.61458,-6.482291 v -0.529167 h 0.39688 0.39687 v -0.926042 -0.926041 h -0.39687 -0.39688 v 0.926041 0.926042 h -0.52917 -0.52916 v -0.926042 -0.926041 h -0.39688 -0.39687 v 0.926041 0.926042 h 0.39687 0.39688 v 0.529167 0.529166 h 0.52916 0.52917 z m 1.85208,-3.704167 v -0.529167 h -0.92604 -0.92604 v 0.529167 0.529167 h 0.92604 0.92604 z m -4.7625,12.038542 v -0.396875 h 0.52917 0.52917 v 0.396875 0.396875 h -0.52917 -0.52917 z m 1.85209,-0.926042 v -0.529167 h 0.52916 0.52917 v 0.529167 0.529167 h -0.52917 -0.52916 z m 2.91041,0 v -0.529167 h 0.39688 0.39687 v 0.529167 0.529167 h -0.39687 -0.39688 z m 1.85209,-1.852083 v -0.529167 h -0.52917 -0.52917 v -0.396875 -0.396875 h 0.52917 0.52917 v 0.396875 0.396875 h 0.39687 0.39688 v 0.529167 0.529166 h -0.39688 -0.39687 z m -1.05834,-2.778125 v -0.396875 h 0.52917 0.52917 v -0.926042 -0.926042 h 0.39687 0.39688 v 1.322917 1.322917 h -0.92604 -0.92605 z M 127.6819,32.396888 v -1.852084 h 0.52917 0.52916 v -0.396875 -0.396875 h 1.32292 1.32292 v 1.322917 1.322917 h 0.52916 0.52917 v -0.396875 -0.396875 h 0.39688 0.39687 v 0.396875 0.396875 h -0.39687 -0.39688 v 0.529166 0.529167 h -1.85208 -1.85209 v 0.396875 0.396875 h -0.52916 -0.52917 z"
         id="path46" />
      <path
         style="fill:#eda77d;stroke-width:0.264583"
         d="m 135.09023,78.302096 v -0.396875 h 0.92605 0.92604 v 0.396875 0.396875 h -0.92604 -0.92605 z m 4.7625,0 v -0.396875 h 0.39688 0.39687 v 0.396875 0.396875 h -0.39687 -0.39688 z m 1.85209,0 v -0.396875 h 0.39687 0.39688 v 0.396875 0.396875 h -0.39688 -0.39687 z m -5.55625,-2.778125 v -0.529167 h 2.77812 2.77813 v 0.529167 0.529167 h -2.77813 -2.77812 z m -1.05834,-2.248958 v -0.926042 h 0.92605 0.92604 v 0.396875 0.396875 h 0.52916 0.52917 v 0.529167 0.529166 h -0.52917 -0.52916 v -0.529166 -0.529167 h -0.39688 -0.39687 v 0.529167 0.529166 h -0.52917 -0.52917 z m 3.70417,-1.455209 v -0.529166 h 0.52917 0.52916 v 0.529166 0.529167 h -0.52916 -0.52917 z m 2.91042,-2.778125 v -0.396875 h -3.30729 -3.3073 v -0.529166 -0.529167 h -0.92604 -0.92604 v -0.396875 -0.396875 h 0.92604 0.92604 v -0.529167 -0.529166 h -0.39687 -0.39688 v -0.396875 -0.396875 h 3.175 3.175 v 0.396875 0.396875 h -0.39687 -0.39688 v 0.529166 0.529167 h -0.52916 -0.52917 v -0.529167 -0.529166 h -0.39687 -0.39688 v 0.529166 0.529167 h -0.52917 -0.52916 v -0.529167 -0.529166 h -0.39688 -0.39687 v 0.529166 0.529167 h -0.52917 -0.52917 v 0.396875 0.396875 h 3.3073 3.30729 v -0.396875 -0.396875 h 0.39687 0.39688 v 0.396875 0.396875 h -0.39688 -0.39687 v 0.529167 0.529166 h 0.39687 0.39688 v 0.396875 0.396875 h -0.39688 -0.39687 z m -21.43125,-2.38125 v -0.926041 h 0.52916 0.52917 v -0.396875 -0.396875 h -0.52917 -0.52916 v -0.529167 -0.529167 h 0.52916 0.52917 v 0.529167 0.529167 h 0.39688 0.39687 v 0.396875 0.396875 h -0.39687 -0.39688 v 0.926041 0.926042 h -0.52917 -0.52916 z m 7.40833,0.529167 v -0.396875 h 0.52917 0.52916 v 0.396875 0.396875 h -0.52916 -0.52917 z m 2.91042,0 v -0.396875 h -0.52917 -0.52917 v -0.529167 -0.529166 h 0.52917 0.52917 v 0.529166 0.529167 h 0.92604 0.92604 v 0.396875 0.396875 h -0.92604 -0.92604 z m -7.40834,-1.852083 v -0.396875 h 0.39688 0.39687 v 0.396875 0.396875 h -0.39687 -0.39688 z m 1.85209,0 v -0.396875 h 0.39687 0.39688 v 0.396875 0.396875 h -0.39688 -0.39687 z m 1.85208,0 v -0.396875 h 0.39688 0.39687 v -0.529167 -0.529167 h 0.92604 0.92604 v 0.529167 0.529167 h -0.92604 -0.92604 v 0.396875 0.396875 h -0.39687 -0.39688 z m 4.49792,0 v -0.396875 h 0.92604 0.92604 v 0.396875 0.396875 h -0.92604 -0.92604 z m 10.31875,-0.926042 v -0.529167 h 0.39687 0.39688 v 0.529167 0.529167 h -0.39688 -0.39687 z m -12.17084,-3.307292 v -0.926041 h 0.52917 0.52917 v 0.529166 0.529167 h 0.39687 0.39688 v 0.396875 0.396875 h -0.92604 -0.92605 z m 2.91042,0.529167 v -0.396875 h 1.32292 1.32291 v 0.396875 0.396875 h -1.32291 -1.32292 z m -11.1125,-0.926042 v -0.529166 h 0.39688 0.39687 v 0.529166 0.529167 h -0.39687 -0.39688 z m 1.85208,0 v -0.529166 h 0.39688 0.39687 v 0.529166 0.529167 h -0.39687 -0.39688 z m 1.85209,0 v -0.529166 h 0.92604 0.92604 v 0.529166 0.529167 h -0.92604 -0.92604 z m 0.79375,-1.852083 v -0.529167 h 0.52916 0.52917 v 0.529167 0.529167 h -0.52917 -0.52916 z m 4.7625,-0.926042 v -0.396875 h 1.32291 1.32292 v 0.396875 0.396875 h -1.32292 -1.32291 z m -10.31875,-0.926041 v -0.529167 h 0.52916 0.52917 v 0.529167 0.529166 h -0.52917 -0.52916 z m 9.26041,-1.852084 v -0.529166 h -0.39687 -0.39688 v -0.396875 -0.396875 h 0.39688 0.39687 v -0.529167 -0.529167 h 0.52917 0.52917 v 0.926042 0.926042 h 0.39687 0.39688 v 0.529166 0.529167 h -0.92604 -0.92605 z m 3.70417,0 v -0.529166 h -0.39687 -0.39688 v -0.396875 -0.396875 h 0.39688 0.39687 v 0.396875 0.396875 h 0.52917 0.52916 v -0.396875 -0.396875 h 0.39688 0.39687 v 0.396875 0.396875 h -0.39687 -0.39688 v 0.529166 0.529167 h -0.52916 -0.52917 z m -5.55625,-4.630208 v -0.396875 h 0.52917 0.52916 v 0.396875 0.396875 h -0.52916 -0.52917 z m 11.1125,0 v -0.396875 h 0.92604 0.92604 v 0.396875 0.396875 h -0.92604 -0.92604 z m -11.1125,-1.852083 v -0.396875 h 0.52917 0.52916 v 0.396875 0.396875 h -0.52916 -0.52917 z m 1.85208,0 v -0.396875 h 0.52917 0.52917 v 0.396875 0.396875 h -0.52917 -0.52917 z m 2.91042,0 v -0.396875 h 0.92604 0.92604 v 0.396875 0.396875 h -0.92604 -0.92604 z m -4.7625,-3.175 v -0.926042 h 0.52917 0.52916 v 0.396875 0.396875 h 1.32292 1.32292 v 0.529167 0.529166 h -1.85209 -1.85208 z m 4.7625,0.396875 v -0.529167 h 1.32292 1.32291 v 0.529167 0.529166 h -1.32291 -1.32292 z m 4.49792,0 v -0.529167 h 0.52916 0.52917 v 0.529167 0.529166 h -0.52917 -0.52916 z m 2.91041,0 v -0.529167 h 0.39688 0.39687 v 0.529167 0.529166 h -0.39687 -0.39688 z m 1.85209,0 v -0.529167 h 0.39687 0.39688 v 0.529167 0.529166 h -0.39688 -0.39687 z m -12.96459,-2.248959 v -0.926041 h 0.39688 0.39687 v 0.396875 0.396875 h 1.85209 1.85208 v -0.396875 -0.396875 h 0.92604 0.92604 v 0.396875 0.396875 h 0.52917 0.52917 v 0.529166 0.529167 h -0.52917 -0.52917 v -0.529167 -0.529166 h -0.39687 -0.39688 v 0.529166 0.529167 h -2.77812 -2.77813 z m 12.96459,-0.529166 v -0.396875 h 0.39687 0.39688 v 0.396875 0.396875 h -0.39688 -0.39687 z m -6.61459,-1.852084 v -0.396875 h 0.52917 0.52917 v 0.396875 0.396875 h -0.52917 -0.52917 z m 5.55625,0 v -0.396875 h 0.52917 0.52917 v 0.396875 0.396875 h -0.52917 -0.52917 z m -11.90625,-2.778125 v -0.529166 h -0.52916 -0.52917 v -0.396875 -0.396875 h 0.52917 0.52916 v -0.926042 -0.926042 h -0.52916 -0.52917 v -0.529166 -0.529167 h 0.52917 0.52916 v 0.529167 0.529166 h 0.39688 0.39687 v 0.396875 0.396875 h 0.52917 0.52917 v -0.396875 -0.396875 h 0.39687 0.39688 v 0.396875 0.396875 h 0.52916 0.52917 v -0.396875 -0.396875 h 0.39688 0.39687 v 0.396875 0.396875 h 0.52917 0.52916 v -0.396875 -0.396875 h 0.39688 0.39687 v 0.926042 0.926042 h -3.175 -3.175 v 0.396875 0.396875 h 0.92605 0.92604 v 0.529166 0.529167 h -0.92604 -0.92605 z m 2.64584,0 v -0.529166 h 0.52916 0.52917 v 0.529166 0.529167 h -0.52917 -0.52916 z m 1.85208,0 v -0.529166 h 0.52917 0.52916 v 0.529166 0.529167 h -0.52916 -0.52917 z m 5.55625,0 v -0.529166 h 0.52917 0.52916 v 0.529166 0.529167 h -0.52916 -0.52917 z m 1.85208,0 v -0.529166 h 0.52917 0.52917 v 0.529166 0.529167 h -0.52917 -0.52917 z"
         id="path44" />
      <path
         style="fill:#74648d;stroke-width:0.264583"
         d="m 123.97773,80.947929 v -0.396875 h -1.85208 -1.85208 v -1.322916 -1.322917 h 2.77812 2.77813 v 0.396875 0.396875 h 0.52916 0.52917 v 0.529167 0.529166 h 0.39688 0.39687 v 0.396875 0.396875 h 1.85208 1.85209 v 0.396875 0.396875 h -1.85209 -1.85208 v -0.396875 -0.396875 h -0.39687 -0.39688 v -0.396875 -0.396875 h -0.92604 -0.92604 v -0.529166 -0.529167 h -0.52917 -0.52917 v 0.529167 0.529166 h 0.52917 0.52917 v 0.396875 0.396875 h 0.39687 0.39688 v 0.396875 0.396875 h -0.92604 -0.92605 z m 8.46667,-0.396875 v -0.79375 h 0.39688 0.39687 v -0.529166 -0.529167 h 0.52917 0.52916 v 1.322917 1.322916 h -0.92604 -0.92604 z m 3.70417,0.396875 v -0.396875 h -0.52917 -0.52917 v -0.926041 -0.926042 h 0.92605 0.92604 v 1.322917 1.322916 h -0.39688 -0.39687 z m 5.55625,0 v -0.396875 h -0.92604 -0.92605 v -0.396875 -0.396875 h 0.39688 0.39687 v -0.529166 -0.529167 h 0.92605 0.92604 v 0.529167 0.529166 h -0.39688 -0.39687 v 0.396875 0.396875 h 0.39687 0.39688 v 0.396875 0.396875 h -0.39688 -0.39687 z m -3.70417,-0.79375 v -0.396875 h 0.39688 0.39687 v 0.396875 0.396875 h -0.39687 -0.39688 z m -6.61458,-0.926041 v -0.529167 h 0.52916 0.52917 v 0.529167 0.529166 h -0.52917 -0.52916 z m -4.49792,-0.926042 v -0.396875 h -0.52917 -0.52916 v -0.926042 -0.926041 h -0.39688 -0.39687 v 0.396875 0.396875 h -2.38125 -2.38125 v -0.926042 -0.926042 h 1.85208 1.85208 v -0.396875 -0.396875 h 1.85209 1.85208 v -0.926041 -0.926042 h -3.70417 -3.70416 v -0.529167 -0.529166 h 4.63021 4.6302 v 1.455208 1.455208 h 0.92605 0.92604 v -0.529166 -0.529167 h -0.39688 -0.39687 v -1.322917 -1.322916 h 0.92604 0.92604 v -0.529167 -0.529167 h 0.92604 0.92604 v 0.529167 0.529167 h 0.39688 0.39687 v 0.396875 0.396875 h 0.52917 0.52917 v -0.926042 -0.926042 h -0.92604 -0.92605 v -0.396875 -0.396875 h -0.52916 -0.52917 v -0.529166 -0.529167 h 0.92604 0.92604 v 0.529167 0.529166 h 3.3073 3.30729 v -0.529166 -0.529167 h 0.39687 0.39688 v 0.529167 0.529166 h -0.39688 -0.39687 v 0.396875 0.396875 h 0.39687 0.39688 v 0.529167 0.529167 h -0.39688 -0.39687 v -0.529167 -0.529167 h -0.52917 -0.52917 v 0.529167 0.529167 h -0.39687 -0.39688 v -0.529167 -0.529167 h -0.52916 -0.52917 v 1.455209 1.455208 h -1.85208 -1.85209 v -0.529167 -0.529166 h -1.85208 -1.85208 v 0.529166 0.529167 h 0.52916 0.52917 v 0.396875 0.396875 h 0.39688 0.39687 v -0.396875 -0.396875 h 0.52917 0.52916 v 0.396875 0.396875 h 0.39688 0.39687 v 0.529167 0.529166 h 3.3073 3.30729 v -0.926041 -0.926042 h -0.52917 -0.52917 v 0.396875 0.396875 h -0.39687 -0.39688 v -0.396875 -0.396875 h 0.39688 0.39687 v -0.529167 -0.529166 h 0.52917 0.52917 v 0.529166 0.529167 h 0.39687 0.39688 v 0.926042 0.926041 h -0.39688 -0.39687 v 0.396875 0.396875 h -3.30729 -3.3073 v 0.529167 0.529167 h 0.92605 0.92604 v 0.396875 0.396875 h 0.52916 0.52917 v -0.396875 -0.396875 h 2.24896 2.24896 v 0.396875 0.396875 h -0.39688 -0.39687 v 0.529166 0.529167 h -0.52917 -0.52917 v -0.529167 -0.529166 h -0.39687 -0.39688 v 0.529166 0.529167 h -1.4552 -1.45521 v -0.529167 -0.529166 h -1.32292 -1.32292 v 0.529166 0.529167 h -1.4552 -1.45521 v 0.396875 0.396875 h -2.24896 -2.24896 z m 0.79375,-1.322917 v -0.926041 h 0.92604 0.92604 v 0.396875 0.396875 h 0.52917 0.52917 v 0.529166 0.529167 h 0.39687 0.39688 v -0.529167 -0.529166 h 1.45521 1.4552 v -0.926042 -0.926042 h 0.39688 0.39687 v -0.396875 -0.396875 h -1.85208 -1.85208 v 1.322917 1.322917 h -0.39688 -0.39687 v -0.396875 -0.396875 h -0.52917 -0.52917 v -0.926042 -0.926042 h -0.92604 -0.92604 v 0.926042 0.926042 h -0.39687 -0.39688 v -0.529167 -0.529167 h -0.52917 -0.52916 v 0.529167 0.529167 h 0.52916 0.52917 v 0.926041 0.926042 h 0.39688 0.39687 z m 4.7625,-1.455208 v -0.529167 h 0.39688 0.39687 v 0.529167 0.529167 h -0.39687 -0.39688 z m -7.40833,0 v -0.529167 h -0.52917 -0.52917 v 0.529167 0.529167 h 0.52917 0.52917 z m 12.96458,-5.159375 v -0.926042 h -0.52917 -0.52916 v 0.926042 0.926042 h 0.52916 0.52917 z m -7.40833,-1.322917 v -0.396875 h -0.52917 -0.52917 v -0.529166 -0.529167 h -0.39687 -0.39688 v -0.396875 -0.396875 h -0.52916 -0.52917 v -0.529167 -0.529166 h 0.92604 0.92604 v 0.926041 0.926042 h 0.92605 0.92604 v 0.926042 0.926041 h -0.39688 -0.39687 z m -9.26042,-0.926041 v -0.529167 h 0.39688 0.39687 v -0.926042 -0.926041 h 0.52917 0.52916 v 0.926041 0.926042 h 0.39688 0.39687 v -0.926042 -0.926041 h 0.52917 0.52917 v 0.926041 0.926042 h 0.39687 0.39688 v -0.926042 -0.926041 h 0.52916 0.52917 v 0.926041 0.926042 h 0.39688 0.39687 v 0.529167 0.529166 h -0.39687 -0.39688 v -0.529166 -0.529167 h -0.52917 -0.52916 v 0.529167 0.529166 h -0.39688 -0.39687 v -0.529166 -0.529167 h -0.52917 -0.52917 v 0.529167 0.529166 h -0.39687 -0.39688 v -0.529166 -0.529167 h -0.52916 -0.52917 v 0.529167 0.529166 h -0.39687 -0.39688 z m 14.81667,-0.926042 v -0.396875 h 0.39687 0.39688 v 0.396875 0.396875 h -0.39688 -0.39687 z m 1.85208,0 v -0.396875 h 0.39688 0.39687 v 0.396875 0.396875 h -0.39687 -0.39688 z m 1.85208,0 v -0.396875 h 0.39688 0.39687 v -0.529167 -0.529166 h 0.52917 0.52917 v 0.529166 0.529167 h -0.52917 -0.52917 v 0.396875 0.396875 h -0.39687 -0.39688 z m -9.26041,-0.926042 v -0.529166 h 0.39687 0.39688 v 0.529166 0.529167 h -0.39688 -0.39687 z m 3.70416,0 v -0.529166 h 0.39688 0.39687 v 0.529166 0.529167 h -0.39687 -0.39688 z M 121.3319,64.411471 v -0.529167 h -0.52917 -0.52916 v -0.396875 -0.396875 h 0.52916 0.52917 v -0.529166 -0.529167 h 0.39688 0.39687 v 0.529167 0.529166 h 0.52917 0.52916 v -0.529166 -0.529167 h 0.39688 0.39687 v 0.529167 0.529166 h 0.52917 0.52917 v -0.529166 -0.529167 h 0.39687 0.39688 v -0.396875 -0.396875 h 0.92604 0.92604 v 0.396875 0.396875 h -0.39687 -0.39688 v 0.529167 0.529166 h -0.52917 -0.52916 v 0.396875 0.396875 h 0.52916 0.52917 v 0.529167 0.529167 h -2.77812 -2.77813 z m 8.20208,0 v -0.529167 h -1.32291 -1.32292 v -0.396875 -0.396875 h 0.39688 0.39687 v -0.529166 -0.529167 h 1.85208 1.85209 v 0.529167 0.529166 h 0.52916 0.52917 v -0.529166 -0.529167 h 0.92604 0.92604 v 0.529167 0.529166 h 0.92605 0.92604 v -0.926041 -0.926042 h 0.92604 0.92604 v -0.529167 -0.529166 h -0.92604 -0.92604 v -0.396875 -0.396875 h 0.92604 0.92604 v -0.529167 -0.529167 h -0.52917 -0.52916 v -0.396875 -0.396875 h 0.52916 0.52917 v -0.529166 -0.529167 h -0.92604 -0.92604 v 0.926042 0.926041 h -0.52917 -0.52917 v 0.529167 0.529167 h -0.39687 -0.39688 v -0.529167 -0.529167 h 0.39688 0.39687 v -0.926041 -0.926042 h 0.52917 0.52917 v -0.396875 -0.396875 h -0.52917 -0.52917 v -0.926042 -0.926041 h 0.52917 0.52917 v -0.529167 -0.529167 h -0.92604 -0.92605 v -0.396875 -0.396875 h -0.52916 -0.52917 v 0.396875 0.396875 h -0.39687 -0.39688 v -0.396875 -0.396875 h -0.52917 -0.52916 v 0.396875 0.396875 h -1.32292 -1.32292 v -0.396875 -0.396875 h 1.32292 1.32292 v -0.529166 -0.529167 h -1.32292 -1.32292 v -0.396875 -0.396875 h 0.39688 0.39687 v -0.529167 -0.529166 h 0.92605 0.92604 v 0.926041 0.926042 h 0.52916 0.52917 v 0.529167 0.529166 h 0.39688 0.39687 v -0.529166 -0.529167 h -0.39687 -0.39688 v -0.396875 -0.396875 h 0.39688 0.39687 v -0.529167 -0.529166 h 0.92604 0.92604 v 1.455208 1.455208 h 0.52917 0.52917 v -0.529166 -0.529167 h 0.39687 0.39688 v 0.926042 0.926041 h 0.52916 0.52917 v 0.529167 0.529167 h 0.39688 0.39687 v -0.529167 -0.529167 h 0.52917 0.52916 v 0.529167 0.529167 h 0.39688 0.39687 v -0.529167 -0.529167 h -0.39687 -0.39688 v -0.396875 -0.396875 h -0.52916 -0.52917 v 0.396875 0.396875 h -0.39687 -0.39688 v -0.926041 -0.926042 h 0.92604 0.92604 v 0.529167 0.529166 h 0.39688 0.39687 v 0.396875 0.396875 h 0.92605 0.92604 v 1.455209 1.455208 h -0.39688 -0.39687 v 0.396875 0.396875 h 0.39687 0.39688 v 0.529167 0.529166 h -0.39688 -0.39687 v -0.529166 -0.529167 h -0.52917 -0.52917 v 0.926042 0.926041 h 0.52917 0.52917 v 0.529167 0.529167 h -0.52917 -0.52917 v 0.926041 0.926042 h 0.52917 0.52917 v -0.529167 -0.529166 h 0.39687 0.39688 v 0.529166 0.529167 h -0.39688 -0.39687 v 0.396875 0.396875 h -0.52917 -0.52917 v -0.396875 -0.396875 h -0.39687 -0.39688 v -0.529167 -0.529166 h -0.52916 -0.52917 v 0.529166 0.529167 h -0.39687 -0.39688 v 0.396875 0.396875 h 0.39688 0.39687 v 0.529167 0.529166 h 0.52917 0.52916 v 0.396875 0.396875 h 0.39688 0.39687 v -0.396875 -0.396875 h 0.52917 0.52917 v 0.396875 0.396875 h -0.52917 -0.52917 v 0.529167 0.529167 h -0.39687 -0.39688 v -0.529167 -0.529167 h -2.38125 -2.38125 v 0.529167 0.529167 h -0.39687 -0.39688 v -0.926042 -0.926042 h -0.92604 -0.92604 v 0.926042 0.926042 h -1.45521 -1.45521 z m 8.46667,-1.852083 v -0.529167 h -0.52917 -0.52916 v 0.529167 0.529166 h 0.52916 0.52917 z m 1.85208,-3.704167 v -0.529167 h -0.52916 -0.52917 v 0.529167 0.529167 h 0.52917 0.52916 z m 0,-1.852083 v -0.529167 h 0.39688 0.39687 v -0.396875 -0.396875 h 0.52917 0.52917 v -0.926042 -0.926041 h -0.52917 -0.52917 v 0.926041 0.926042 h -0.39687 -0.39688 v 0.396875 0.396875 h -0.52916 -0.52917 v -0.396875 -0.396875 h -0.39687 -0.39688 v -0.926042 -0.926041 h -0.92604 -0.92604 v 0.926041 0.926042 h 0.92604 0.92604 v 0.396875 0.396875 h 0.39688 0.39687 v 0.529167 0.529166 h 0.52917 0.52916 z m 0,-2.248959 v -0.926041 h -0.52916 -0.52917 v 0.926041 0.926042 h 0.52917 0.52916 z m -12.17083,5.953125 v -0.529166 h 0.92604 0.92604 v 0.529166 0.529167 h -0.92604 -0.92604 z m 2.91042,0 v -0.529166 h 0.39687 0.39688 v 0.529166 0.529167 h -0.39688 -0.39687 z m 2.64583,0 v -0.529166 h 0.52917 0.52916 v 0.529166 0.529167 h -0.52916 -0.52917 z m -8.20208,-0.926041 v -0.396875 h 0.39687 0.39688 v 0.396875 0.396875 h -0.39688 -0.39687 z m 5.55625,-0.926042 v -0.529167 h 0.39687 0.39688 v 0.529167 0.529167 h -0.39688 -0.39687 z m 1.85208,0 v -0.529167 h 0.39688 0.39687 v 0.529167 0.529167 h -0.39687 -0.39688 z m -5.55625,-0.926042 v -0.396875 h -2.77812 -2.77813 v -0.529166 -0.529167 h 2.24896 2.24896 v -1.852083 -1.852084 h -2.77813 -2.77812 v -0.396875 -0.396875 h 3.70416 3.70417 v 1.322917 1.322917 h -0.39687 -0.39688 v 0.926041 0.926042 h 1.32292 1.32291 v -0.396875 -0.396875 h 0.92605 0.92604 v 0.396875 0.396875 h 0.52916 0.52917 v 0.529167 0.529166 h -0.92604 -0.92604 v -0.529166 -0.529167 h -0.52917 -0.52917 v 0.529167 0.529166 h -0.92604 -0.92604 v 0.396875 0.396875 h -0.39687 -0.39688 z m 14.81667,-6.482291 v -0.529167 h 0.39687 0.39688 v 0.529167 0.529166 h -0.39688 -0.39687 z m -2.91042,-1.852084 v -0.529166 h 0.52917 0.52916 v -0.396875 -0.396875 h -1.4552 -1.45521 v -0.529167 -0.529167 h 0.52916 0.52917 v -0.396875 -0.396875 h 1.85208 1.85209 v 0.396875 0.396875 h -0.92604 -0.92605 v 0.529167 0.529167 h 1.32292 1.32292 v 0.926041 0.926042 h -0.39688 -0.39687 v -0.529167 -0.529166 h -0.92604 -0.92605 v 0.529166 0.529167 h -0.52916 -0.52917 z m -10.05417,-1.852083 v -0.529167 h 0.39688 0.39687 v 0.529167 0.529167 h -0.39687 -0.39688 z m 1.85209,0 v -0.529167 h 0.39687 0.39688 v -0.396875 -0.396875 h 0.52916 0.52917 v 0.396875 0.396875 h -0.52917 -0.52916 v 0.529167 0.529167 h -0.39688 -0.39687 z m 2.64583,0 v -0.529167 h 0.52917 0.52916 v -0.396875 -0.396875 h 0.39688 0.39687 v 0.396875 0.396875 h 0.52917 0.52917 v 0.529167 0.529167 h -1.45521 -1.45521 z m -3.70417,-2.778125 v -0.396875 h 0.52917 0.52917 v 0.396875 0.396875 h -0.52917 -0.52917 z m 1.85209,0 v -0.396875 h 0.52916 0.52917 v 0.396875 0.396875 h -0.52917 -0.52916 z m 1.85208,0 v -0.396875 h 1.85208 1.85209 v 0.396875 0.396875 h -1.85209 -1.85208 z m 5.55625,0 v -0.396875 h -0.39687 -0.39688 v -0.529167 -0.529166 h -0.92604 -0.92604 v -0.396875 -0.396875 h -1.45521 -1.45521 v -0.529167 -0.529167 h 0.52917 0.52916 v -0.396875 -0.396875 h 0.39688 0.39687 v 0.396875 0.396875 h 0.92605 0.92604 v 0.529167 0.529167 h 0.52916 0.52917 v -0.529167 -0.529167 h 0.92604 0.92604 v 0.529167 0.529167 h -0.92604 -0.92604 v 0.396875 0.396875 h 0.92604 0.92604 v 0.529166 0.529167 h 0.39688 0.39687 v 0.396875 0.396875 h -0.92604 -0.92604 z m -11.1125,-0.926042 v -0.529166 h 0.52917 0.52916 v 0.529166 0.529167 h -0.52916 -0.52917 z m 14.02292,0 v -0.529166 h 0.39687 0.39688 v 0.529166 0.529167 h -0.39688 -0.39687 z m -12.17084,-1.852083 v -0.529167 h 0.52917 0.52917 v 0.529167 0.529167 h -0.52917 -0.52917 z m 1.85209,0 v -0.529167 h -0.39688 -0.39687 v -0.396875 -0.396875 h -0.92604 -0.92605 v 0.396875 0.396875 h -0.52916 -0.52917 v -0.396875 -0.396875 h 0.52917 0.52916 v -0.529166 -0.529167 h -0.52916 -0.52917 v -0.396875 -0.396875 h 0.92604 0.92604 v 0.396875 0.396875 h 0.52917 0.52917 v 0.529167 0.529166 h 0.39687 0.39688 v 0.396875 0.396875 h 0.52916 0.52917 v -0.396875 -0.396875 h 0.39688 0.39687 v -0.529166 -0.529167 h 0.52917 0.52916 v 0.529167 0.529166 h -0.52916 -0.52917 v 0.396875 0.396875 h -0.39687 -0.39688 v 0.529167 0.529167 h -0.52917 -0.52916 z m 9.26041,0 v -0.529167 h 0.92605 0.92604 v 0.529167 0.529167 h -0.92604 -0.92605 z m -9.26041,-1.852083 v -0.529167 h 0.52916 0.52917 v 0.529167 0.529166 h -0.52917 -0.52916 z m 4.7625,0 v -0.529167 h 0.39687 0.39688 v 0.529167 0.529166 h -0.39688 -0.39687 z m 1.85208,0 v -0.529167 h 0.39688 0.39687 v 0.529167 0.529166 h -0.39687 -0.39688 z m 1.85208,-0.396875 v -0.926042 h 0.39688 0.39687 v 0.396875 0.396875 h 0.52917 0.52917 v -0.396875 -0.396875 h 0.39687 0.39688 v 0.396875 0.396875 h -0.39688 -0.39687 v 0.529167 0.529166 h -0.92604 -0.92605 z m -1.85208,-1.455209 v -0.529166 h -0.52917 -0.52916 v -0.926042 -0.926042 h 0.52916 0.52917 v -0.396875 -0.396875 h 0.39688 0.39687 v -0.529166 -0.529167 h -0.39687 -0.39688 v 0.529167 0.529166 h -0.52917 -0.52916 v -0.529166 -0.529167 h -0.39688 -0.39687 v 1.852083 1.852084 h -0.52917 -0.52917 v -1.322917 -1.322917 h -0.92604 -0.92604 v -0.529166 -0.529167 h 1.45521 1.45521 v -0.926042 -0.926041 h 0.39687 0.39688 v 0.926041 0.926042 h 0.52916 0.52917 v -0.926042 -0.926041 h 0.39688 0.39687 v 0.926041 0.926042 h 0.52917 0.52916 v 0.529167 0.529166 h 0.39688 0.39687 v -0.529166 -0.529167 h 0.92605 0.92604 v 0.529167 0.529166 h -0.39688 -0.39687 v 0.926042 0.926042 h -0.52917 -0.52917 v 0.396875 0.396875 h -0.92604 -0.92604 v 0.529166 0.529167 h -0.39687 -0.39688 z M 127.6819,36.630221 v -0.529167 h 0.52917 0.52916 v 0.529167 0.529167 h -0.52916 -0.52917 z m 1.05833,-2.778125 v -0.396875 h 1.85209 1.85208 v -0.529167 -0.529166 h 0.39688 0.39687 v -0.396875 -0.396875 h -0.39687 -0.39688 v 0.396875 0.396875 h -0.52917 -0.52916 v -1.322917 -1.322917 h 0.92604 0.92604 v 0.396875 0.396875 h 0.52917 0.52916 v -0.396875 -0.396875 h 0.39688 0.39687 v 0.396875 0.396875 h -0.39687 -0.39688 v 0.529167 0.529167 h 0.39688 0.39687 v 0.396875 0.396875 h -0.39687 -0.39688 v 0.529166 0.529167 h -0.92604 -0.92604 v 0.396875 0.396875 h -1.85208 -1.85209 z m 11.1125,-0.529167 v -0.926041 h 0.39688 0.39687 v -0.396875 -0.396875 h 0.52917 0.52917 v -0.529167 -0.529167 h -0.92604 -0.92605 v 0.529167 0.529167 h -0.92604 -0.92604 v -0.529167 -0.529167 h -0.52917 -0.52916 v 0.529167 0.529167 h -0.39688 -0.39687 v -0.926042 -0.926042 h 0.92604 0.92604 v 0.396875 0.396875 h 0.92604 0.92604 v -0.396875 -0.396875 h 0.92605 0.92604 v 0.396875 0.396875 h 0.39687 0.39688 v 1.455209 1.455208 h -0.92604 -0.92605 v 0.396875 0.396875 h -0.39687 -0.39688 z"
         id="path42" />
      <path
         style="fill:#110a0a;stroke-width:0.264583"
         d="m 136.94232,78.302096 v -0.396875 h 1.45521 1.4552 v 0.396875 0.396875 h -1.4552 -1.45521 z m 3.70416,0 v -0.396875 h 0.52917 0.52917 v 0.396875 0.396875 h -0.52917 -0.52917 z m -5.55625,-2.778125 v -0.529167 h 0.52917 0.52917 v 0.529167 0.529167 h -0.52917 -0.52917 z m 6.61459,0 v -0.529167 h 0.39687 0.39688 v 0.529167 0.529167 h -0.39688 -0.39687 z m -5.55625,-1.852083 v -0.529167 h 0.39687 0.39688 v -0.396875 -0.396875 h 1.45521 1.4552 v 0.926042 0.926041 h -0.92604 -0.92604 v -0.529166 -0.529167 h -0.52917 -0.52916 v 0.529167 0.529166 h -0.39688 -0.39687 z m -8.46667,-4.630209 v -0.396875 h 0.52917 0.52916 v 0.396875 0.396875 h -0.52916 -0.52917 z m 4.7625,-1.852083 v -0.396875 h 0.39688 0.39687 v 0.396875 0.396875 h -0.39687 -0.39688 z m 8.20208,0 v -0.396875 h -0.39687 -0.39688 v -0.529167 -0.529166 h 0.39688 0.39687 v -0.926042 -0.926042 h 0.52917 0.52917 v -0.396875 -0.396875 h 0.39687 0.39688 v 0.396875 0.396875 h -0.39688 -0.39687 v 0.926042 0.926042 h 0.39687 0.39688 v 0.529166 0.529167 h -0.39688 -0.39687 v 0.396875 0.396875 h -0.52917 -0.52917 z m 1.05834,-0.926042 v -0.529166 h -0.52917 -0.52917 v 0.529166 0.529167 h 0.52917 0.52917 z m -5.55625,0 v -0.529166 h 0.39687 0.39688 v 0.529166 0.529167 h -0.39688 -0.39687 z m 1.85208,0 v -0.529166 h 0.39688 0.39687 v 0.529166 0.529167 h -0.39687 -0.39688 z m -15.875,-0.926041 v -0.396875 h 0.52917 0.52916 v 0.396875 0.396875 h -0.52916 -0.52917 z m 1.85208,0 v -0.396875 h 0.52917 0.52917 v 0.396875 0.396875 h -0.52917 -0.52917 z m 1.85209,0 v -0.396875 h 0.52916 0.52917 v 0.396875 0.396875 h -0.52917 -0.52916 z m 1.85208,0 v -0.396875 h 1.85208 1.85209 v 0.396875 0.396875 h -1.85209 -1.85208 z m 5.55625,0 v -0.396875 h 0.52917 0.52916 v 0.396875 0.396875 h -0.52916 -0.52917 z m -12.96458,-2.778125 v -0.529167 h 0.52916 0.52917 v 0.529167 0.529166 h -0.52917 -0.52916 z m 7.40833,-0.926042 v -0.396875 h -0.39687 -0.39688 v -0.529167 -0.529166 h 0.39688 0.39687 v 0.529166 0.529167 h 0.92604 0.92604 v 0.396875 0.396875 h -0.92604 -0.92604 z m 3.70417,0 v -0.396875 h 0.52916 0.52917 v 0.396875 0.396875 h -0.52917 -0.52916 z m -11.1125,-1.322917 v -0.926041 h 0.52916 0.52917 v 0.926041 0.926042 h -0.52917 -0.52916 z m 1.85208,0.396875 v -0.529166 h 0.52917 0.52916 v 0.529166 0.529167 h -0.52916 -0.52917 z m 1.85208,0 v -0.529166 h 0.52917 0.52917 v 0.529166 0.529167 h -0.52917 -0.52917 z m 4.7625,-0.926041 v -0.396875 h 3.175 3.175 v 0.396875 0.396875 h -3.175 -3.175 z m 12.96459,0 v -0.396875 h 0.39687 0.39688 v 0.396875 0.396875 h -0.39688 -0.39687 z M 121.3319,58.855221 v -0.529167 h -0.52917 -0.52916 v -0.396875 -0.396875 h 0.52916 0.52917 v 0.396875 0.396875 h 2.24896 2.24896 v 0.529167 0.529167 h -2.24896 -2.24896 z m 5.55625,0 v -0.529167 h 0.39688 0.39687 v 0.529167 0.529167 h -0.39687 -0.39688 z m 1.85208,-0.926042 v -0.396875 h 0.92605 0.92604 v 0.396875 0.396875 h -0.92604 -0.92605 z m 4.49792,0 v -0.396875 h 0.92604 0.92604 v 0.396875 0.396875 h -0.92604 -0.92604 z m -6.35,-1.852083 v -0.396875 h 0.39688 0.39687 v -0.926042 -0.926041 h 0.52917 0.52916 v -0.529167 -0.529167 h 0.39688 0.39687 v 0.529167 0.529167 h -0.39687 -0.39688 v 0.396875 0.396875 h 0.39688 0.39687 v 0.529166 0.529167 h -0.92604 -0.92604 v 0.396875 0.396875 h -0.39687 -0.39688 z m 4.49792,-0.926042 v -0.529166 h -0.39688 -0.39687 v -0.926042 -0.926042 h 2.24896 2.24895 v 0.529167 0.529167 h -0.39687 -0.39688 v 0.396875 0.396875 h 0.39688 0.39687 v 0.529166 0.529167 h -0.39687 -0.39688 v -0.529167 -0.529166 h -0.52916 -0.52917 v -0.396875 -0.396875 h -0.39687 -0.39688 v 0.396875 0.396875 h 0.39688 0.39687 v 0.529166 0.529167 h -0.92604 -0.92604 z m -11.1125,-0.926041 v -0.396875 h 0.52916 0.52917 v 0.396875 0.396875 h -0.52917 -0.52916 z m 14.81666,-3.704167 v -0.396875 h 1.85209 1.85208 v 0.396875 0.396875 h -1.85208 -1.85209 z m 5.55625,0 v -0.396875 h 0.92605 0.92604 v 0.396875 0.396875 h -0.92604 -0.92605 z m -11.90625,-1.852083 v -0.396875 h -0.52916 -0.52917 v -0.926042 -0.926042 h 0.52917 0.52916 v 0.926042 0.926042 h 0.39688 0.39687 v 0.396875 0.396875 h -0.39687 -0.39688 z m 1.85209,0 v -0.396875 h 0.92604 0.92604 v 0.396875 0.396875 h -0.92604 -0.92604 z m 3.70416,0 v -0.396875 h 0.39688 0.39687 v 0.396875 0.396875 h -0.39687 -0.39688 z m -2.91041,-2.778125 v -0.529167 h 0.52916 0.52917 v 0.529167 0.529166 h -0.52917 -0.52916 z m 3.70416,0 v -0.529167 h 0.92605 0.92604 v 0.529167 0.529166 h -0.92604 -0.92605 z m 2.91042,0 v -0.529167 h 0.92604 0.92604 v 0.529167 0.529166 h -0.92604 -0.92604 z m 2.64583,0 v -0.529167 h 0.52917 0.52917 v 0.529167 0.529166 h -0.52917 -0.52917 z m -6.35,-1.852084 v -0.529166 h 0.39688 0.39687 v 0.529166 0.529167 h -0.39687 -0.39688 z m 1.85209,0 v -0.529166 h 0.92604 0.92604 v -0.396875 -0.396875 h 1.85208 1.85209 v 0.396875 0.396875 h -1.85209 -1.85208 v 0.529166 0.529167 h -0.92604 -0.92604 z m -6.61459,-0.926041 v -0.396875 h 1.85209 1.85208 v 0.396875 0.396875 h -1.85208 -1.85209 z m 6.61459,-1.852084 v -0.396875 h 2.24896 2.24895 v 0.396875 0.396875 h -2.24895 -2.24896 z m 5.55625,0 v -0.396875 h 0.39687 0.39688 v 0.396875 0.396875 h -0.39688 -0.39687 z M 127.6819,40.334388 v -0.529167 h 0.52917 0.52916 v 0.529167 0.529166 h -0.52916 -0.52917 z m 0,-1.852084 v -0.529166 h 0.52917 0.52916 v 0.529166 0.529167 h -0.52916 -0.52917 z m 2.91042,0 v -0.529166 h 0.39687 0.39688 v 0.529166 0.529167 h -0.39688 -0.39687 z m 1.85208,0 v -0.529166 h 0.39688 0.39687 v 0.529166 0.529167 h -0.39687 -0.39688 z m 1.85208,0 v -0.529166 h 0.39688 0.39687 v 0.529166 0.529167 h -0.39687 -0.39688 z m 5.55625,0 v -0.529166 h 0.39688 0.39687 v 0.529166 0.529167 h -0.39687 -0.39688 z m 1.85209,0 v -0.529166 h 0.39687 0.39688 v 0.529166 0.529167 h -0.39688 -0.39687 z M 127.6819,35.704179 v -0.396875 h 0.52917 0.52916 v 0.396875 0.396875 h -0.52916 -0.52917 z m 1.85208,0 v -0.396875 h 0.52917 0.52917 v 0.396875 0.396875 h -0.52917 -0.52917 z m 1.85209,0 v -0.396875 h 0.52916 0.52917 v 0.396875 0.396875 h -0.52917 -0.52916 z m 1.85208,0 v -0.396875 h 0.52917 0.52916 v 0.396875 0.396875 h -0.52916 -0.52917 z m -5.55625,-5.55625 v -0.396875 h 0.52917 0.52916 v 0.396875 0.396875 h -0.52916 -0.52917 z"
         id="path40" />
    </g>
  </g>
</svg>
