<?xml version="1.0" encoding="UTF-8" standalone="no"?>
<svg
   xmlns:dc="http://purl.org/dc/elements/1.1/"
   xmlns:cc="http://creativecommons.org/ns#"
   xmlns:rdf="http://www.w3.org/1999/02/22-rdf-syntax-ns#"
   xmlns:svg="http://www.w3.org/2000/svg"
   xmlns="http://www.w3.org/2000/svg"
   xmlns:sodipodi="http://sodipodi.sourceforge.net/DTD/sodipodi-0.dtd"
   xmlns:inkscape="http://www.inkscape.org/namespaces/inkscape"
   width="500"
   height="500"
   viewBox="0 0 132.29167 132.29167"
   version="1.1"
   id="svg8"
   inkscape:version="1.0.1 (c497b03c, 2020-09-10)"
   sodipodi:docname="tired_pikachu.svg">
  <defs
     id="defs2" />
  <sodipodi:namedview
     id="base"
     pagecolor="#ffffff"
     bordercolor="#666666"
     borderopacity="1.0"
     inkscape:pageopacity="0.0"
     inkscape:pageshadow="2"
     inkscape:zoom="0.99330922"
     inkscape:cx="-41.208604"
     inkscape:cy="246.52879"
     inkscape:document-units="mm"
     inkscape:current-layer="layer1"
     inkscape:document-rotation="0"
     showgrid="false"
     fit-margin-top="0"
     fit-margin-left="0"
     fit-margin-right="0"
     fit-margin-bottom="0"
     units="px"
     inkscape:window-width="1680"
     inkscape:window-height="935"
     inkscape:window-x="1440"
     inkscape:window-y="23"
     inkscape:window-maximized="1" />
  <metadata
     id="metadata5">
    <rdf:RDF>
      <cc:Work
         rdf:about="">
        <dc:format>image/svg+xml</dc:format>
        <dc:type
           rdf:resource="http://purl.org/dc/dcmitype/StillImage" />
        <dc:title></dc:title>
      </cc:Work>
    </rdf:RDF>
  </metadata>
  <g
     inkscape:label="Layer 1"
     inkscape:groupmode="layer"
     id="layer1"
     transform="translate(-30.84286,-163.28571)">
    <g
       id="g38"
       transform="translate(4.2333333,26.458333)">
      <path
         style="fill:#fee839;stroke-width:0.264583"
         d="m 53.06786,241.07321 v -1.5875 h -3.175 -3.175 v -1.5875 -1.5875 h -3.175 -3.175 v -1.5875 -1.5875 h 3.175 3.175 v -1.5875 -1.5875 h 3.175 3.175 v -1.5875 -1.5875 h 3.175 3.175 v -1.5875 -1.5875 h -3.175 -3.175 v -1.5875 -1.5875 h -4.7625 -4.7625 v -1.5875 -1.5875 h -4.7625 -4.7625 v -7.9375 -7.9375 h 7.9375 7.9375 v 1.5875 1.5875 h 4.7625 4.7625 v 1.5875 1.5875 h 1.5875 1.5875 v 1.5875 1.5875 h 1.5875 1.5875 v -7.9375 -7.9375 h 1.5875 1.5875 v -4.7625 -4.7625 h -3.175 -3.175 v 1.5875 1.5875 h -3.175 -3.175 v -1.5875 -1.5875 h -1.5875 -1.5875 v -3.175 -3.175 h 3.175 3.175 v -1.5875 -1.5875 h 3.175 3.175 v -1.5875 -1.5875 h 6.35 6.35 v -1.5875 -1.5875 h 4.7625 4.7625 v -1.5875 -1.5875 h 11.1125 11.1125 v 1.5875 1.5875 h 4.7625 4.7625 v 1.5875 1.5875 h 6.35 6.35 v 1.5875 1.5875 h 3.175 3.175 v 1.5875 1.5875 h 3.175 3.175 v 3.175 3.175 h -1.5875 -1.5875 v 1.5875 1.5875 h -3.175 -3.175 v -1.5875 -1.5875 h -3.175 -3.175 v 4.7625 4.7625 h 1.5875 1.5875 v 7.9375 7.9375 h -1.5875 -1.5875 v 3.175 3.175 h -3.175 -3.175 v 3.175 3.175 h 1.5875 1.5875 v -1.5875 -1.5875 h 1.5875 1.5875 v 4.7625 4.7625 h 1.5875 1.5875 v 6.35 6.35 h -22.225 -22.225 v -4.7625 -4.7625 h -1.5875 -1.5875 v 4.7625 4.7625 h -3.175 -3.175 v -1.5875 -1.5875 h -1.5875 -1.5875 v 1.5875 1.5875 h -4.7625 -4.7625 v -6.35 -6.35 h 1.5875 1.5875 v -9.525 -9.525 h -1.5875 -1.5875 v 7.9375 7.9375 h -1.5875 -1.5875 v 7.9375 7.9375 h -4.7625 -4.7625 z m 22.225,-4.7625 v -3.175 h -1.5875 -1.5875 v 3.175 3.175 h 1.5875 1.5875 z m 9.525,-7.9375 v -4.7625 h -1.5875 -1.5875 v 4.7625 4.7625 h 1.5875 1.5875 z m 31.75,-1.5875 v -3.175 h -1.5875 -1.5875 v -3.175 -3.175 h -1.5875 -1.5875 v -1.5875 -1.5875 h -1.5875 -1.5875 v -3.175 -3.175 h 3.175 3.175 v 1.5875 1.5875 h 1.5875 1.5875 v 1.5875 1.5875 h 1.5875 1.5875 v 1.5875 1.5875 h 1.5875 1.5875 v -1.5875 -1.5875 h -1.5875 -1.5875 v -1.5875 -1.5875 h -1.5875 -1.5875 v -1.5875 -1.5875 h -1.5875 -1.5875 v -1.5875 -1.5875 h -3.175 -3.175 v -4.7625 -4.7625 h -1.5875 -1.5875 v -1.5875 -1.5875 h -4.7625 -4.7625 v 1.5875 1.5875 h -1.5875 -1.5875 v 6.35 6.35 h 1.5875 1.5875 v 1.5875 1.5875 h 4.7625 4.7625 v 1.5875 1.5875 h 1.5875 1.5875 v 1.5875 1.5875 h 1.5875 1.5875 v 3.175 3.175 h 1.5875 1.5875 v 3.175 3.175 h 1.5875 1.5875 z m -38.1,-20.6375 v -1.5875 h 1.5875 1.5875 v -3.175 -3.175 h -1.5875 -1.5875 v -1.5875 -1.5875 h -3.175 -3.175 v 1.5875 1.5875 h -1.5875 -1.5875 v 3.175 3.175 h 1.5875 1.5875 v 1.5875 1.5875 h 3.175 3.175 z m 47.625,0 v -1.5875 h 1.5875 1.5875 v -3.175 -3.175 h -1.5875 -1.5875 v -1.5875 -1.5875 h -3.175 -3.175 v 1.5875 1.5875 h -1.5875 -1.5875 v 3.175 3.175 h 1.5875 1.5875 v 1.5875 1.5875 h 3.175 3.175 z m -44.45,-19.05 v -1.5875 h 3.175 3.175 v -1.5875 -1.5875 h -3.175 -3.175 v 1.5875 1.5875 h -3.175 -3.175 v 1.5875 1.5875 h 3.175 3.175 z m 19.05,0 v -1.5875 h -1.5875 -1.5875 v 1.5875 1.5875 h 1.5875 1.5875 z m 22.225,0 v -1.5875 h -3.175 -3.175 v -1.5875 -1.5875 h -3.175 -3.175 v 1.5875 1.5875 h 3.175 3.175 v 1.5875 1.5875 h 3.175 3.175 z m -50.8,-4.7625 v -3.175 h -1.5875 -1.5875 v 3.175 3.175 h 1.5875 1.5875 z m 57.15,0 v -3.175 h -1.5875 -1.5875 v 3.175 3.175 h 1.5875 1.5875 z"
         id="path44" />
      <path
         style="fill:#ee3f34;stroke-width:0.264583"
         d="m 72.11786,206.14821 v -1.5875 h -1.5875 -1.5875 v -3.175 -3.175 h 1.5875 1.5875 v -1.5875 -1.5875 h 3.175 3.175 v 1.5875 1.5875 h 1.5875 1.5875 v 3.175 3.175 h -1.5875 -1.5875 v 1.5875 1.5875 h -3.175 -3.175 z m 22.225,-3.175 v -4.7625 h 4.7625 4.7625 v 4.7625 4.7625 h -4.7625 -4.7625 z m 25.4,3.175 v -1.5875 h -1.5875 -1.5875 v -3.175 -3.175 h 1.5875 1.5875 v -1.5875 -1.5875 h 3.175 3.175 v 1.5875 1.5875 h 1.5875 1.5875 v 3.175 3.175 h -1.5875 -1.5875 v 1.5875 1.5875 h -3.175 -3.175 z"
         id="path42" />
      <path
         style="fill:#000000;stroke-width:0.264583"
         d="m 46.71786,241.07321 v -1.5875 h -3.175 -3.175 v -1.5875 -1.5875 h -1.5875 -1.5875 v -1.5875 -1.5875 h 1.5875 1.5875 v -1.5875 -1.5875 h 3.175 3.175 v -1.5875 -1.5875 h 3.175 3.175 v -1.5875 -1.5875 h -4.7625 -4.7625 v -1.5875 -1.5875 h -6.35 -6.35 v -11.1125 -11.1125 h 9.525 9.525 v 1.5875 1.5875 h 4.7625 4.7625 v 1.5875 1.5875 h 1.5875 1.5875 v -4.7625 -4.7625 h 1.5875 1.5875 v -3.175 -3.175 h -1.5875 -1.5875 v 1.5875 1.5875 h -11.1125 -11.1125 v -1.5875 -1.5875 h 1.5875 1.5875 v -1.5875 -1.5875 h 1.5875 1.5875 v -1.5875 -1.5875 h 1.5875 1.5875 v -1.5875 -1.5875 h 1.5875 1.5875 v -1.5875 -1.5875 h 3.175 3.175 v -1.5875 -1.5875 h 3.175 3.175 v -1.5875 -1.5875 h 6.35 6.35 v -1.5875 -1.5875 h 4.7625 4.7625 v -1.5875 -1.5875 h 11.1125 11.1125 v 1.5875 1.5875 h 4.7625 4.7625 v 1.5875 1.5875 h 6.35 6.35 v 1.5875 1.5875 h 3.175 3.175 v 1.5875 1.5875 h 3.175 3.175 v 1.5875 1.5875 h 1.5875 1.5875 v 1.5875 1.5875 h 1.5875 1.5875 v 1.5875 1.5875 h 1.5875 1.5875 v 3.175 3.175 h -9.525 -9.525 v -1.5875 -1.5875 h -1.5875 -1.5875 v 3.175 3.175 h 1.5875 1.5875 v 7.9375 7.9375 h -1.5875 -1.5875 v 9.525 9.525 h 1.5875 1.5875 v 6.35 6.35 h -1.5875 -1.5875 v -6.35 -6.35 h -1.5875 -1.5875 v -4.7625 -4.7625 h -1.5875 -1.5875 v 1.5875 1.5875 h -1.5875 -1.5875 v -3.175 -3.175 h -1.5875 -1.5875 v -1.5875 -1.5875 h -1.5875 -1.5875 v -1.5875 -1.5875 h -1.5875 -1.5875 v -1.5875 -1.5875 h -3.175 -3.175 v 3.175 3.175 h 1.5875 1.5875 v 1.5875 1.5875 h 1.5875 1.5875 v 3.175 3.175 h 1.5875 1.5875 v 3.175 3.175 h -1.5875 -1.5875 v -3.175 -3.175 h -1.5875 -1.5875 v -3.175 -3.175 h -1.5875 -1.5875 v -1.5875 -1.5875 h -1.5875 -1.5875 v -1.5875 -1.5875 h -4.7625 -4.7625 v -1.5875 -1.5875 h -1.5875 -1.5875 v -6.35 -6.35 h 1.5875 1.5875 v -1.5875 -1.5875 h 4.7625 4.7625 v 1.5875 1.5875 h 1.5875 1.5875 v 4.7625 4.7625 h 3.175 3.175 v 1.5875 1.5875 h 1.5875 1.5875 v 1.5875 1.5875 h 1.5875 1.5875 v 1.5875 1.5875 h 1.5875 1.5875 v 1.5875 1.5875 h 3.175 3.175 v -3.175 -3.175 h 1.5875 1.5875 v -7.9375 -7.9375 h -1.5875 -1.5875 v -4.7625 -4.7625 h -1.5875 -1.5875 v -3.175 -3.175 h 1.5875 1.5875 v 3.175 3.175 h 3.175 3.175 v 1.5875 1.5875 h 3.175 3.175 v -1.5875 -1.5875 h 1.5875 1.5875 v -3.175 -3.175 h -3.175 -3.175 v -1.5875 -1.5875 h -3.175 -3.175 v -1.5875 -1.5875 h -6.35 -6.35 v -1.5875 -1.5875 h -4.7625 -4.7625 v -1.5875 -1.5875 h -11.1125 -11.1125 v 1.5875 1.5875 h -4.7625 -4.7625 v 1.5875 1.5875 h -6.35 -6.35 v 1.5875 1.5875 h -3.175 -3.175 v 1.5875 1.5875 h -3.175 -3.175 v 3.175 3.175 h 1.5875 1.5875 v 1.5875 1.5875 h 3.175 3.175 v -1.5875 -1.5875 h 3.175 3.175 v -3.175 -3.175 h 1.5875 1.5875 v 3.175 3.175 h -1.5875 -1.5875 v 4.7625 4.7625 h -1.5875 -1.5875 v 7.9375 7.9375 h 1.5875 1.5875 v 9.525 9.525 h -1.5875 -1.5875 v 6.35 6.35 h -1.5875 -1.5875 v -7.9375 -7.9375 h 1.5875 1.5875 v -7.9375 -7.9375 h -1.5875 -1.5875 v -1.5875 -1.5875 h -1.5875 -1.5875 v -1.5875 -1.5875 h -4.7625 -4.7625 v -1.5875 -1.5875 h -7.9375 -7.9375 v 7.9375 7.9375 h 4.7625 4.7625 v 1.5875 1.5875 h 4.7625 4.7625 v 1.5875 1.5875 h 3.175 3.175 v 1.5875 1.5875 h -3.175 -3.175 v 1.5875 1.5875 h -3.175 -3.175 v 1.5875 1.5875 h -3.175 -3.175 v 1.5875 1.5875 h 3.175 3.175 v 1.5875 1.5875 h 3.175 3.175 v 1.5875 1.5875 h -3.175 -3.175 z m 57.15,-38.1 v -4.7625 h -4.7625 -4.7625 v 4.7625 4.7625 h 4.7625 4.7625 z m -28.575,38.1 v -1.5875 h -1.5875 -1.5875 v -3.175 -3.175 h 1.5875 1.5875 v 3.175 3.175 h 1.5875 1.5875 v 1.5875 1.5875 h -1.5875 -1.5875 z m 9.525,-3.175 v -4.7625 h -1.5875 -1.5875 v -4.7625 -4.7625 h 1.5875 1.5875 v 4.7625 4.7625 h 1.5875 1.5875 v 4.7625 4.7625 h -1.5875 -1.5875 z m -9.525,-50.8 v -1.5875 h 3.175 3.175 v -1.5875 -1.5875 h 3.175 3.175 v 1.5875 1.5875 h -3.175 -3.175 v 1.5875 1.5875 h -3.175 -3.175 z m 22.225,0 v -1.5875 h 1.5875 1.5875 v 1.5875 1.5875 h -1.5875 -1.5875 z m 19.05,0 v -1.5875 h -3.175 -3.175 v -1.5875 -1.5875 h 3.175 3.175 v 1.5875 1.5875 h 3.175 3.175 v 1.5875 1.5875 h -3.175 -3.175 z"
         id="path40" />
    </g>
    <rect
       style="fill:#000000;stroke-width:0.264583"
       id="rect50"
       width="88.900002"
       height="3.175"
       x="50.951195"
       y="265.94403" />
  </g>
</svg>
