<?xml version="1.0" encoding="UTF-8" standalone="no"?>
<svg
   xmlns:dc="http://purl.org/dc/elements/1.1/"
   xmlns:cc="http://creativecommons.org/ns#"
   xmlns:rdf="http://www.w3.org/1999/02/22-rdf-syntax-ns#"
   xmlns:svg="http://www.w3.org/2000/svg"
   xmlns="http://www.w3.org/2000/svg"
   xmlns:sodipodi="http://sodipodi.sourceforge.net/DTD/sodipodi-0.dtd"
   xmlns:inkscape="http://www.inkscape.org/namespaces/inkscape"
   width="587.32208mm"
   height="587.32257mm"
   viewBox="0 0 587.32205 587.32256"
   version="1.1"
   id="svg8"
   sodipodi:docname="pokedroid_centered.svg"
   inkscape:version="1.0.1 (c497b03c, 2020-09-10)">
  <defs
     id="defs2" />
  <sodipodi:namedview
     id="base"
     pagecolor="#ffffff"
     bordercolor="#666666"
     borderopacity="1.0"
     inkscape:pageopacity="0.0"
     inkscape:pageshadow="2"
     inkscape:zoom="0.18915768"
     inkscape:cx="-271.32157"
     inkscape:cy="1370.8492"
     inkscape:document-units="px"
     inkscape:current-layer="layer1"
     inkscape:document-rotation="0"
     showgrid="false"
     units="mm"
     inkscape:window-width="1680"
     inkscape:window-height="935"
     inkscape:window-x="1440"
     inkscape:window-y="23"
     inkscape:window-maximized="1"
     inkscape:pagecheckerboard="true"
     showguides="true"
     inkscape:guide-bbox="true"
     fit-margin-left="70"
     fit-margin-right="70"
     fit-margin-bottom="70"
     fit-margin-top="70"
     lock-margins="false" />
  <metadata
     id="metadata5">
    <rdf:RDF>
      <cc:Work
         rdf:about="">
        <dc:format>image/svg+xml</dc:format>
        <dc:type
           rdf:resource="http://purl.org/dc/dcmitype/StillImage" />
        <dc:title></dc:title>
      </cc:Work>
    </rdf:RDF>
  </metadata>
  <g
     inkscape:label="pokeball"
     id="layer1"
     transform="translate(68.647376,50.990628)"
     style="display:inline"
     sodipodi:insensitive="true">
    <path
       id="path270-5-8"
       style="display:inline;fill:#37474f;fill-opacity:1;stroke-width:0.265422"
       inkscape:label="shape"
       d="M 224.93949,19.009374 A 223.66113,223.66116 0 0 0 1.3526224,242.67065 223.66113,223.66116 0 0 0 225.01391,466.33194 223.66113,223.66116 0 0 0 448.67467,242.67065 223.66113,223.66116 0 0 0 225.01391,19.009374 a 223.66113,223.66116 0 0 0 -0.0744,0 z m 0.0946,23.572205 A 200.19522,200.19522 0 0 1 424.88386,231.02175 H 294.79414 a 70.743058,70.743058 0 0 0 -69.78023,-59.11577 70.743058,70.743058 0 0 0 -69.78489,59.13748 H 25.183209 A 200.19522,200.19522 0 0 1 225.03406,42.581579 Z m -0.11317,153.013401 a 47.060299,47.199121 0 0 1 0.093,0 47.060299,47.199121 0 0 1 47.06017,47.19918 47.060299,47.199121 0 0 1 -47.06017,47.19918 47.060299,47.199121 0 0 1 -47.0607,-47.19918 47.060299,47.199121 0 0 1 46.96768,-47.19918 z m 69.86446,58.73439 H 424.89627 A 200.19522,200.19522 0 0 1 225.03406,442.97162 200.19522,200.19522 0 0 1 25.173907,254.35159 H 155.24556 a 70.743058,70.743058 0 0 0 69.76835,59.04034 70.743058,70.743058 0 0 0 69.77144,-59.06256 z" />
    <path
       id="path731"
       style="fill:#ffffff;fill-opacity:1;stroke-width:0.263499"
       d="m 224.92089,195.59498 a 47.247323,47.247323 0 0 0 -47.24724,47.24725 47.247323,47.247323 0 0 0 47.24724,47.24724 47.247323,47.247323 0 0 0 47.24723,-47.24724 47.247323,47.247323 0 0 0 -47.24723,-47.24725 z m -0.30592,24.0869 a 23.553589,23.553589 0 0 1 0.0522,0 23.553589,23.553589 0 0 1 23.5536,23.5536 23.553589,23.553589 0 0 1 -23.5536,23.55362 23.553589,23.553589 0 0 1 -23.5536,-23.55362 23.553589,23.553589 0 0 1 23.50141,-23.5536 z"
       inkscape:label="ring" />
    <circle
       style="display:inline;fill:#37474f;fill-opacity:1;stroke-width:0.251162"
       id="path270"
       cx="224.80992"
       cy="243.40334"
       r="23.757393"
       inkscape:label="center" />
    <path
       style="display:inline;fill:#cfd8dc;fill-opacity:1;stroke-width:0.218074"
       d="m 377.02582,254.32937 c -4.12036,78.76738 -49.59236,149.78578 -119.45266,185.97832 v 0.003 c 92.41129,-15.22274 161.91839,-92.48017 167.32311,-185.98073 z"
       id="path753"
       inkscape:label="bottom_shade" />
    <path
       style="display:inline;fill:#00dd42;fill-opacity:1;stroke-width:0.218074"
       d="m 353.45515,0.76345924 c -2.58472,0.008806 -4.97004,1.39049066 -6.2637,3.62820226 -0.043,0.07487 -0.0847,0.1505024 -0.12504,0.2268595 L 313.26899,63.075934 C 295.67666,54.43773 276.91122,48.429648 257.57316,45.243949 v 0.0016 C 327.42052,81.431561 372.88943,152.26963 377.02322,231.02175 h 47.86064 C 420.95237,164.18687 383.87159,103.74126 326.07389,69.950968 l 33.70594,-58.299285 -0.004,-0.0026 c 1.99748,-3.4719361 0.80735,-7.9055913 -2.6603,-9.9105057 -1.11236,-0.6430525 -2.37541,-0.97953918 -3.66025,-0.97513432 z"
       id="path497-3"
       inkscape:label="top_shade" />
    <path
       id="path574"
       style="display:inline;fill:#00ff6b;fill-opacity:1;stroke-width:0.255358"
       d="M 95.069898,0.58569232 A 7.2636535,7.2636535 0 0 0 91.522312,1.5468739 7.2636535,7.2636535 0 0 0 88.823769,11.447045 l -0.0041,0.0026 33.941601,59.231008 C 110.22677,78.129262 98.452197,86.975323 87.685854,97.128118 50.535214,132.16165 28.176038,180.06737 25.183209,231.04346 H 155.22902 c 5.67482,-34.12282 35.19341,-59.13762 69.78489,-59.13748 34.58276,2.7e-4 64.09624,25.00332 69.78023,59.11577 h 82.22908 C 372.88943,152.26963 327.42052,81.431561 257.57316,45.245499 c -10.69102,-1.76113 -21.57034,-2.66392 -32.5391,-2.66392 -31.34289,3.7e-5 -61.95733,7.353887 -89.52115,21.133593 L 101.56046,4.4650421 A 7.2636535,7.2636535 0 0 0 101.43592,4.2376658 7.2636535,7.2636535 0 0 0 95.069898,0.58569232 Z"
       inkscape:label="top" />
    <path
       style="fill:#ffffff;fill-opacity:1;stroke-width:0.244358"
       d="m 294.78535,254.32937 c -5.70666,34.08804 -35.20904,59.06224 -69.77144,59.06256 -34.55412,-3e-5 -64.05221,-24.9623 -69.76835,-59.04034 H 25.173907 c 2.954075,51.00576 25.29737,98.95221 62.454069,134.01921 37.156704,35.067 86.314834,54.60079 137.406084,54.60082 10.96883,2e-5 21.84812,-0.90284 32.5391,-2.66393 v 0 c 69.8603,-36.19254 115.3323,-107.21094 119.45266,-185.97832 z"
       id="path715"
       inkscape:label="bottom" />
    <circle
       style="display:inline;fill:#ffffff;fill-opacity:1;stroke-width:0.262178"
       id="path464"
       cx="130.09064"
       cy="154.98643"
       r="17.354168"
       inkscape:label="left_eye" />
    <circle
       style="display:inline;fill:#ffffff;fill-opacity:1;stroke-width:0.262178"
       id="path464-9"
       cx="319.64835"
       cy="154.9483"
       r="17.354168"
       inkscape:label="right_eye" />
  </g>
</svg>
