<?xml version="1.0" encoding="UTF-8" standalone="no"?>
<svg
   xmlns:dc="http://purl.org/dc/elements/1.1/"
   xmlns:cc="http://creativecommons.org/ns#"
   xmlns:rdf="http://www.w3.org/1999/02/22-rdf-syntax-ns#"
   xmlns:svg="http://www.w3.org/2000/svg"
   xmlns="http://www.w3.org/2000/svg"
   xmlns:sodipodi="http://sodipodi.sourceforge.net/DTD/sodipodi-0.dtd"
   xmlns:inkscape="http://www.inkscape.org/namespaces/inkscape"
   width="1690.666"
   height="1760.3019"
   viewBox="0 0 447.32203 465.74654"
   version="1.1"
   id="svg8"
   sodipodi:docname="pokedroid.svg"
   inkscape:version="1.0.1 (c497b03c, 2020-09-10)">
  <defs
     id="defs2" />
  <sodipodi:namedview
     id="base"
     pagecolor="#ffffff"
     bordercolor="#666666"
     borderopacity="1.0"
     inkscape:pageopacity="0.0"
     inkscape:pageshadow="2"
     inkscape:zoom="1.2980117"
     inkscape:cx="804.61412"
     inkscape:cy="143.97018"
     inkscape:document-units="px"
     inkscape:current-layer="layer1"
     inkscape:document-rotation="0"
     showgrid="false"
     units="px"
     inkscape:window-width="1680"
     inkscape:window-height="935"
     inkscape:window-x="1440"
     inkscape:window-y="23"
     inkscape:window-maximized="1"
     inkscape:pagecheckerboard="true"
     showguides="true"
     inkscape:guide-bbox="true"
     fit-margin-left="0"
     fit-margin-right="0"
     fit-margin-bottom="0"
     fit-margin-top="0"
     lock-margins="false" />
  <metadata
     id="metadata5">
    <rdf:RDF>
      <cc:Work
         rdf:about="">
        <dc:format>image/svg+xml</dc:format>
        <dc:type
           rdf:resource="http://purl.org/dc/dcmitype/StillImage" />
        <dc:title></dc:title>
      </cc:Work>
    </rdf:RDF>
  </metadata>
  <g
     inkscape:label="Layer 1"
     inkscape:groupmode="layer"
     id="layer1"
     transform="translate(-0.82345581,-0.05624581)"
     style="display:inline">
    <path
       id="path270-5-8"
       style="display:inline;fill:#37474f;fill-opacity:1;stroke-width:1.00317"
       inkscape:label="path270-5-8"
       d="M 845.05273,68 A 845.33342,845.33353 0 0 0 0,913.33398 845.33342,845.33353 0 0 0 845.33398,1758.668 845.33342,845.33353 0 0 0 1690.666,913.33398 845.33342,845.33353 0 0 0 845.33398,68 a 845.33342,845.33353 0 0 0 -0.28125,0 z m 0.35743,89.0918 A 756.64336,756.64336 0 0 1 1600.748,869.30664 H 1109.0703 A 267.37534,267.37534 0 0 0 845.33398,645.87695 267.37534,267.37534 0 0 0 581.58008,869.38867 H 90.068359 A 756.64336,756.64336 0 0 1 845.41016,157.0918 Z m -0.42774,578.31836 a 177.8657,178.39038 0 0 1 0.35156,0 A 177.8657,178.39038 0 0 1 1023.1992,913.80078 177.8657,178.39038 0 0 1 845.33398,1092.1914 177.8657,178.39038 0 0 1 667.4668,913.80078 177.8657,178.39038 0 0 1 844.98242,735.41016 Z m 264.05468,221.98828 h 491.7578 A 756.64336,756.64336 0 0 1 845.41016,1670.377 756.64336,756.64336 0 0 1 90.033203,957.48242 H 581.64258 A 267.37534,267.37534 0 0 0 845.33398,1180.627 267.37534,267.37534 0 0 0 1109.0371,957.39844 Z"
       transform="matrix(0.26458333,0,0,0.26458333,0.82345581,0.48854065)" />
    <path
       id="path731"
       style="fill:#ffffff;fill-opacity:1;stroke-width:0.263499"
       d="m 224.39172,195.06581 a 47.247323,47.247323 0 0 0 -47.24724,47.24725 47.247323,47.247323 0 0 0 47.24724,47.24724 47.247323,47.247323 0 0 0 47.24723,-47.24724 47.247323,47.247323 0 0 0 -47.24723,-47.24725 z m -0.30592,24.0869 a 23.553589,23.553589 0 0 1 0.0522,0 23.553589,23.553589 0 0 1 23.5536,23.5536 23.553589,23.553589 0 0 1 -23.5536,23.55362 23.553589,23.553589 0 0 1 -23.5536,-23.55362 23.553589,23.553589 0 0 1 23.50141,-23.5536 z" />
    <circle
       style="display:inline;fill:#37474f;fill-opacity:1;stroke-width:0.251162"
       id="path270"
       cx="224.28076"
       cy="242.87418"
       r="23.757393"
       inkscape:label="path270" />
    <path
       style="display:inline;fill:#cfd8dc;fill-opacity:1;stroke-width:0.824217"
       d="m 1419.8672,957.39844 c -15.573,297.70346 -187.4357,566.11946 -451.47462,702.91016 v 0.01 c 349.27102,-57.5334 611.97502,-349.53 632.40232,-702.91796 z"
       transform="matrix(0.26458333,0,0,0.26458333,0.82345581,0.48854065)"
       id="path753" />
    <path
       style="display:inline;fill:#00dd42;fill-opacity:1;stroke-width:0.824217"
       d="m 1330.7812,-0.9609375 c -9.769,0.0332818 -18.7844,5.2553979 -23.6738,13.7128905 -0.1626,0.282975 -0.3202,0.568828 -0.4726,0.857422 L 1178.8965,234.55078 C 1112.4058,201.90245 1041.4813,179.19474 968.39258,167.1543 v 0.006 C 1232.3826,303.92638 1404.2336,571.66081 1419.8574,869.30664 H 1600.748 C 1585.8888,616.70234 1445.741,388.24652 1227.293,260.53516 l 127.3925,-220.343754 -0.016,-0.0098 c 7.5495,-13.12228 3.0514,-29.879402 -10.0547,-37.4570316 -4.2042,-2.43043466 -8.9779,-3.70219521 -13.834,-3.6855469 z"
       transform="matrix(0.26458333,0,0,0.26458333,0.82345581,0.48854065)"
       id="path497-3" />
    <path
       id="path574"
       style="display:inline;fill:#00ff6b;fill-opacity:1;stroke-width:0.965133"
       d="M 354.20703,-1.6328125 A 27.453179,27.453179 0 0 0 340.79883,2 27.453179,27.453179 0 0 0 330.59961,39.417969 l -0.0156,0.0098 L 458.86722,263.293 c -47.37439,28.15225 -91.8767,61.58618 -132.56839,99.95895 C 185.88696,495.66214 101.37984,676.72316 90.068359,869.38867 H 581.58008 c 21.44815,-128.96813 133.01446,-223.51224 263.7539,-223.51172 130.70653,0.001 242.25352,94.50072 263.73632,223.42969 h 310.7871 C 1404.2336,571.66082 1232.3826,303.92638 968.39258,167.16016 c -40.407,-6.65624 -81.5257,-10.06836 -122.98242,-10.06836 -118.46133,1.4e-4 -234.16945,27.79422 -338.34766,79.875 L 378.73828,13.029297 a 27.453179,27.453179 0 0 0 -0.4707,-0.859375 27.453179,27.453179 0 0 0 -24.06055,-13.8027345 z"
       transform="matrix(0.26458333,0,0,0.26458333,0.82345581,0.48854065)" />
    <path
       style="fill:#ffffff;fill-opacity:1;stroke-width:0.923558"
       d="M 1109.0371,957.39844 C 1087.4686,1086.2351 975.96355,1180.6258 845.33398,1180.627 714.73573,1180.6269 603.24689,1086.2813 581.64258,957.48242 H 90.033203 c 11.165007,192.77768 95.612107,373.99258 236.046877,506.52928 140.43477,132.5367 326.2293,206.3652 519.33008,206.3653 41.45701,10e-5 82.57556,-3.4123 122.98242,-10.0684 v 0 C 1232.4315,1523.5179 1404.2942,1255.1019 1419.8672,957.39844 Z"
       transform="matrix(0.26458333,0,0,0.26458333,0.82345581,0.48854065)"
       id="path715" />
    <circle
       style="display:inline;fill:#ffffff;fill-opacity:1;stroke-width:0.262178"
       id="path464"
       cx="129.56148"
       cy="154.45728"
       r="17.354168" />
    <circle
       style="display:inline;fill:#ffffff;fill-opacity:1;stroke-width:0.262178"
       id="path464-9"
       cx="319.11917"
       cy="154.41914"
       r="17.354168" />
  </g>
</svg>
