<?xml version="1.0" encoding="UTF-8" standalone="no"?>
<svg
   xmlns:dc="http://purl.org/dc/elements/1.1/"
   xmlns:cc="http://creativecommons.org/ns#"
   xmlns:rdf="http://www.w3.org/1999/02/22-rdf-syntax-ns#"
   xmlns:svg="http://www.w3.org/2000/svg"
   xmlns="http://www.w3.org/2000/svg"
   xmlns:sodipodi="http://sodipodi.sourceforge.net/DTD/sodipodi-0.dtd"
   xmlns:inkscape="http://www.inkscape.org/namespaces/inkscape"
   width="250"
   height="250"
   viewBox="0 0 66.145835 66.145835"
   version="1.1"
   id="svg8"
   inkscape:version="1.0.1 (c497b03c, 2020-09-10)"
   sodipodi:docname="tired_pikachu.svg">
  <defs
     id="defs2" />
  <sodipodi:namedview
     id="base"
     pagecolor="#ffffff"
     bordercolor="#666666"
     borderopacity="1.0"
     inkscape:pageopacity="0.0"
     inkscape:pageshadow="2"
     inkscape:zoom="3.5813944"
     inkscape:cx="114.56882"
     inkscape:cy="82.734885"
     inkscape:document-units="mm"
     inkscape:current-layer="g38"
     inkscape:document-rotation="0"
     showgrid="false"
     fit-margin-top="0"
     fit-margin-left="0"
     fit-margin-right="0"
     fit-margin-bottom="0"
     units="px"
     inkscape:window-width="1680"
     inkscape:window-height="935"
     inkscape:window-x="1440"
     inkscape:window-y="23"
     inkscape:window-maximized="1" />
  <metadata
     id="metadata5">
    <rdf:RDF>
      <cc:Work
         rdf:about="">
        <dc:format>image/svg+xml</dc:format>
        <dc:type
           rdf:resource="http://purl.org/dc/dcmitype/StillImage" />
        <dc:title></dc:title>
      </cc:Work>
    </rdf:RDF>
  </metadata>
  <g
     inkscape:label="Layer 1"
     inkscape:groupmode="layer"
     id="layer1"
     transform="translate(-30.84286,-163.28571)">
    <g
       id="g38"
       transform="matrix(0.42735043,0,0,0.42735043,24.276734,109.61794)">
      <path
         style="fill:#fee839;stroke-width:0.264583"
         d="m 53.06786,241.07321 v -1.5875 h -3.175 -3.175 v -1.5875 -1.5875 h -3.175 -3.175 v -1.5875 -1.5875 h 3.175 3.175 v -1.5875 -1.5875 h 3.175 3.175 v -1.5875 -1.5875 h 3.175 3.175 v -1.5875 -1.5875 h -3.175 -3.175 v -1.5875 -1.5875 h -4.7625 -4.7625 v -1.5875 -1.5875 h -4.7625 -4.7625 v -7.9375 -7.9375 h 7.9375 7.9375 v 1.5875 1.5875 h 4.7625 4.7625 v 1.5875 1.5875 h 1.5875 1.5875 v 1.5875 1.5875 h 1.5875 1.5875 v -7.9375 -7.9375 h 1.5875 1.5875 v -4.7625 -4.7625 h -3.175 -3.175 v 1.5875 1.5875 h -3.175 -3.175 v -1.5875 -1.5875 h -1.5875 -1.5875 v -3.175 -3.175 h 3.175 3.175 v -1.5875 -1.5875 h 3.175 3.175 v -1.5875 -1.5875 h 6.35 6.35 v -1.5875 -1.5875 h 4.7625 4.7625 v -1.5875 -1.5875 h 11.1125 11.1125 v 1.5875 1.5875 h 4.7625 4.7625 v 1.5875 1.5875 h 6.35 6.35 v 1.5875 1.5875 h 3.175 3.175 v 1.5875 1.5875 h 3.175 3.175 v 3.175 3.175 h -1.5875 -1.5875 v 1.5875 1.5875 h -3.175 -3.175 v -1.5875 -1.5875 h -3.175 -3.175 v 4.7625 4.7625 h 1.5875 1.5875 v 7.9375 7.9375 h -1.5875 -1.5875 v 3.175 3.175 h -3.175 -3.175 v 3.175 3.175 h 1.5875 1.5875 v -1.5875 -1.5875 h 1.5875 1.5875 v 4.7625 4.7625 h 1.5875 1.5875 v 6.35 6.35 h -22.225 -22.225 v -4.7625 -4.7625 h -1.5875 -1.5875 v 4.7625 4.7625 h -3.175 -3.175 v -1.5875 -1.5875 h -1.5875 -1.5875 v 1.5875 1.5875 h -4.7625 -4.7625 v -6.35 -6.35 h 1.5875 1.5875 v -9.525 -9.525 h -1.5875 -1.5875 v 7.9375 7.9375 h -1.5875 -1.5875 v 7.9375 7.9375 h -4.7625 -4.7625 z m 22.225,-4.7625 v -3.175 h -1.5875 -1.5875 v 3.175 3.175 h 1.5875 1.5875 z m 9.525,-7.9375 v -4.7625 h -1.5875 -1.5875 v 4.7625 4.7625 h 1.5875 1.5875 z m 31.75,-1.5875 v -3.175 h -1.5875 -1.5875 v -3.175 -3.175 h -1.5875 -1.5875 v -1.5875 -1.5875 h -1.5875 -1.5875 v -3.175 -3.175 h 3.175 3.175 v 1.5875 1.5875 h 1.5875 1.5875 v 1.5875 1.5875 h 1.5875 1.5875 v 1.5875 1.5875 h 1.5875 1.5875 v -1.5875 -1.5875 h -1.5875 -1.5875 v -1.5875 -1.5875 h -1.5875 -1.5875 v -1.5875 -1.5875 h -1.5875 -1.5875 v -1.5875 -1.5875 h -3.175 -3.175 v -4.7625 -4.7625 h -1.5875 -1.5875 v -1.5875 -1.5875 h -4.7625 -4.7625 v 1.5875 1.5875 h -1.5875 -1.5875 v 6.35 6.35 h 1.5875 1.5875 v 1.5875 1.5875 h 4.7625 4.7625 v 1.5875 1.5875 h 1.5875 1.5875 v 1.5875 1.5875 h 1.5875 1.5875 v 3.175 3.175 h 1.5875 1.5875 v 3.175 3.175 h 1.5875 1.5875 z m -38.1,-20.6375 v -1.5875 h 1.5875 1.5875 v -3.175 -3.175 h -1.5875 -1.5875 v -1.5875 -1.5875 h -3.175 -3.175 v 1.5875 1.5875 h -1.5875 -1.5875 v 3.175 3.175 h 1.5875 1.5875 v 1.5875 1.5875 h 3.175 3.175 z m 47.625,0 v -1.5875 h 1.5875 1.5875 v -3.175 -3.175 h -1.5875 -1.5875 v -1.5875 -1.5875 h -3.175 -3.175 v 1.5875 1.5875 h -1.5875 -1.5875 v 3.175 3.175 h 1.5875 1.5875 v 1.5875 1.5875 h 3.175 3.175 z m -44.45,-19.05 v -1.5875 h 3.175 3.175 v -1.5875 -1.5875 h -3.175 -3.175 v 1.5875 1.5875 h -3.175 -3.175 v 1.5875 1.5875 h 3.175 3.175 z m 19.05,0 v -1.5875 h -1.5875 -1.5875 v 1.5875 1.5875 h 1.5875 1.5875 z m 22.225,0 v -1.5875 h -3.175 -3.175 v -1.5875 -1.5875 h -3.175 -3.175 v 1.5875 1.5875 h 3.175 3.175 v 1.5875 1.5875 h 3.175 3.175 z m -50.8,-4.7625 v -3.175 h -1.5875 -1.5875 v 3.175 3.175 h 1.5875 1.5875 z m 57.15,0 v -3.175 h -1.5875 -1.5875 v 3.175 3.175 h 1.5875 1.5875 z"
         id="path44" />
      <path
         style="fill:#ee3f34;stroke-width:0.264583"
         d="m 72.11786,206.14821 v -1.5875 h -1.5875 -1.5875 v -3.175 -3.175 h 1.5875 1.5875 v -1.5875 -1.5875 h 3.175 3.175 v 1.5875 1.5875 h 1.5875 1.5875 v 3.175 3.175 h -1.5875 -1.5875 v 1.5875 1.5875 h -3.175 -3.175 z m 22.225,-3.175 v -4.7625 h 4.7625 4.7625 v 4.7625 4.7625 h -4.7625 -4.7625 z m 25.4,3.175 v -1.5875 h -1.5875 -1.5875 v -3.175 -3.175 h 1.5875 1.5875 v -1.5875 -1.5875 h 3.175 3.175 v 1.5875 1.5875 h 1.5875 1.5875 v 3.175 3.175 h -1.5875 -1.5875 v 1.5875 1.5875 h -3.175 -3.175 z"
         id="path42" />
      <path
         id="path40"
         style="fill:#000000;stroke-width:0.42735"
         d="m 117.30859,60.896484 v 2.564454 2.564453 h 17.94727 17.94922 v -2.564453 -2.564454 h -17.94922 z m 35.89649,5.128907 v 2.564453 2.564453 h 7.6914 7.69336 v -2.564453 -2.564453 h -7.69336 z m 15.38476,5.128906 v 2.564453 2.5625 h 10.25586 10.25782 v -2.5625 -2.564453 H 178.8457 Z m 20.51368,5.126953 v 2.564453 2.564453 h 5.12695 5.12891 V 78.845703 76.28125 h -5.12891 z m 10.25586,5.128906 v 2.564453 2.564453 h 5.12695 5.1289 v -2.564453 -2.564453 h -5.1289 z m 10.25585,5.128906 v 5.126954 5.128906 h -2.56445 -2.56445 v 2.564453 2.564455 h -5.12695 -5.12891 v 2.5625 2.56445 H 209.61523 225 v -5.12695 -5.128908 h -2.56445 -2.56446 v -2.564453 -2.564453 h -2.5625 -2.56445 v -2.5625 -2.564454 h -2.56445 z m -15.38476,15.384768 v -2.564455 -2.564453 h -5.12695 -5.12891 v 7.691408 7.69336 h 2.56445 2.56446 v -5.12891 -5.12695 h 2.5625 z m -5.12695,10.25586 V 125 137.82031 h 2.5625 2.56445 V 125 112.17969 h -2.56445 z m 0,25.64062 h -2.56446 -2.56445 v 5.12891 5.12695 h -5.12891 -5.12695 v 5.12891 5.1289 h 2.5625 2.56445 v -2.56445 -2.56445 h 2.56446 2.56445 v 7.6914 7.69336 h 2.56445 2.56446 v -15.38476 z m 0,30.76953 v 10.25586 5.12891 h -71.79493 v -2.56445 -7.69141 h -2.56445 -2.56445 v 7.69141 2.56445 h -10.25586 -5.128908 v -5.12891 -5.12695 h -2.564453 -2.564453 v 5.12695 5.12891 h -10.25586 v -5.12891 -10.25586 h 2.564453 2.564453 v -15.38476 -15.38477 h -2.564453 -2.564453 v 12.82031 12.82032 H 78.845703 76.28125 v 12.82031 7.69336 H 60.896484 50.640625 v 2.56445 2.56446 h 10.255859 15.384766 5.128906 15.384766 5.128908 10.25586 5.1289 71.79493 5.12695 v -5.12891 -5.12891 -10.25586 h -2.56445 z M 50.640625,183.97461 v -2.56445 -2.56446 h -5.126953 -5.128906 v 2.56446 2.56445 h 5.128906 z M 40.384766,178.8457 v -2.56445 -2.5625 h -2.564454 -2.564453 v 2.5625 2.56445 h 2.564453 z m 0,-5.12695 h 5.128906 5.126953 v -2.56445 -2.56446 h -5.126953 -5.128906 v 2.56446 z m 10.255859,-5.12891 h 5.128906 5.126953 v -2.56445 -2.56445 h -5.126953 -5.128906 v 2.56445 z m 10.255859,-5.1289 h 5.128907 5.128906 v -2.56446 -2.5625 h -5.128906 -5.128907 v 2.5625 z m 0,-5.12696 v -2.56445 -2.56445 h -7.691406 -7.691406 v 2.56445 2.56445 h 7.691406 z m -15.382812,-5.1289 v -2.56446 -2.56445 h -7.69336 -7.691406 v -12.82031 -12.82031 h 12.820313 12.820312 v -2.56446 -2.5625 H 40.384766 25 v 17.94727 17.94922 H 35.255859 Z M 55.769531,122.43555 V 125 v 2.56445 h 7.691407 7.693359 V 125 122.43555 h -7.693359 z m 15.384766,5.1289 v 2.56446 2.5625 h 2.564453 2.5625 v 2.56445 2.56445 h 2.564453 2.564453 V 125 112.17969 H 78.845703 76.28125 v 7.6914 7.69336 h -2.5625 z m 10.255859,-15.38476 h 2.564453 2.564453 v -7.69336 -7.691408 H 81.410156 76.28125 v 2.564453 2.564455 h 2.564453 2.564453 v 5.12695 z M 76.28125,101.92383 h -5.126953 -5.128906 v -2.564455 -2.564453 h -2.564453 -2.564454 v -5.128906 -5.126954 h -2.5625 -2.564453 v 2.564454 2.5625 h -2.564453 -2.564453 v 2.564453 2.564453 h -2.564453 -2.5625 v 2.564453 2.564455 h -2.564453 -2.564453 v 2.5625 2.56445 H 58.333984 76.28125 v -2.56445 z M 60.896484,86.539062 h 5.128907 5.128906 v -2.564453 -2.564453 h -5.128906 -5.128907 v 2.564453 z m 10.257813,-5.128906 h 5.126953 5.128906 V 78.845703 76.28125 H 76.28125 71.154297 v 2.564453 z M 81.410156,76.28125 h 10.25586 10.257814 v -2.5625 -2.564453 H 91.666016 81.410156 v 2.564453 z m 20.513674,-5.126953 h 7.6914 7.69336 v -2.564453 -2.564453 h -7.69336 -7.6914 v 2.564453 z M 86.539062,96.794922 h 2.564454 2.5625 v -5.128906 -5.126954 h -2.5625 -2.564454 v 5.126954 z m 25.640628,76.923828 v -7.69336 -7.69141 h -2.56446 -2.56445 v 7.69141 7.69336 h 2.56445 z m 61.53906,-25.64258 v -2.5625 -2.56445 h -2.56445 -2.56446 v 2.56445 2.5625 h 2.56446 z m -5.12891,-5.12695 v -2.56445 -2.56446 h -2.56445 -2.56445 v 2.56446 2.56445 h 2.56445 z m -5.1289,-5.12891 v -2.56445 -2.56445 h -2.56446 -2.5625 v 2.56445 2.56445 h 2.5625 z m -5.12696,-5.1289 v -2.5625 -2.56446 h -5.1289 -5.12891 v -7.69336 -7.6914 h -2.5625 -2.56445 v -2.56446 -2.56445 h -7.69336 -7.69141 v 2.56445 2.56446 H 125 122.43555 v 10.25586 10.25586 H 125 127.56445 V 125 117.30859 h 7.69141 7.69336 V 125 v 7.69141 h -7.69336 -7.69141 v 2.56445 2.56445 h 7.69141 7.69336 v 2.56446 2.56445 h 2.56445 2.5625 v -5.12891 -5.1289 h 5.12891 z m -10.25781,10.25781 v 2.56445 2.5625 h 2.56445 2.56446 v -2.5625 -2.56445 h -2.56446 z m 5.12891,5.12695 v 5.12891 5.1289 h 2.56445 2.56445 v -5.1289 -5.12891 h -2.56445 z m 5.1289,10.25781 v 5.12696 5.1289 h 2.5625 2.56446 v -5.1289 -5.12696 h -2.56446 z m 25.64063,-61.539058 v -5.128906 -5.126954 h -2.56445 -2.56446 v 5.126954 5.128906 h 2.56446 z m -76.92383,-5.128906 v 2.564453 2.564453 h 5.12891 5.1289 v -2.564453 -2.564453 h -5.1289 z m 0,5.128906 h -5.12695 -5.128908 v 2.564453 2.564455 h 5.128908 5.12695 v -2.564455 z m 46.1543,-5.128906 v 2.564453 2.564453 h 5.1289 5.12696 v -2.564453 -2.564453 h -5.12696 z m 10.25586,5.128906 v 2.564453 2.564455 h 5.1289 5.12891 v -2.564455 -2.564453 h -5.12891 z m -30.76953,0 v 2.564453 2.564455 h 2.56445 2.56445 v -2.564455 -2.564453 h -2.56445 z"
         transform="matrix(0.619125,0,0,0.619125,15.364735,125.58258)" />
    </g>
  </g>
</svg>
